<?xml version="1.0" encoding="UTF-8" standalone="no"?>
<!-- Created with Inkscape (http://www.inkscape.org/) -->

<svg
   xmlns:dc="http://purl.org/dc/elements/1.1/"
   xmlns:cc="http://creativecommons.org/ns#"
   xmlns:rdf="http://www.w3.org/1999/02/22-rdf-syntax-ns#"
   xmlns:svg="http://www.w3.org/2000/svg"
   xmlns="http://www.w3.org/2000/svg"
   xmlns:sodipodi="http://sodipodi.sourceforge.net/DTD/sodipodi-0.dtd"
   xmlns:inkscape="http://www.inkscape.org/namespaces/inkscape"
   width="800"
   height="90"
   id="svg2"
   version="1.1"
   inkscape:version="0.48.3.1 r9886"
   sodipodi:docname="pdp_header.svg"
   inkscape:export-filename="/home/stefan/01_gtd/04_aktuelleProjekte/2012-0007_pSysmon/01_src/psysmon/doc/source/_static/pdp_header.png"
   inkscape:export-xdpi="90"
   inkscape:export-ydpi="90">
  <defs
     id="defs4" />
  <sodipodi:namedview
     id="base"
     pagecolor="#ffffff"
     bordercolor="#666666"
     borderopacity="1.0"
     inkscape:pageopacity="0.0"
     inkscape:pageshadow="2"
     inkscape:zoom="0.7"
     inkscape:cx="633.9521"
     inkscape:cy="-51.718824"
     inkscape:document-units="px"
     inkscape:current-layer="layer1"
     showgrid="false"
     inkscape:window-width="1604"
     inkscape:window-height="839"
     inkscape:window-x="14"
     inkscape:window-y="45"
     inkscape:window-maximized="0"
     inkscape:snap-page="true" />
  <metadata
     id="metadata7">
    <rdf:RDF>
      <cc:Work
         rdf:about="">
        <dc:format>image/svg+xml</dc:format>
        <dc:type
           rdf:resource="http://purl.org/dc/dcmitype/StillImage" />
        <dc:title />
      </cc:Work>
    </rdf:RDF>
  </metadata>
  <g
     inkscape:label="Layer 1"
     inkscape:groupmode="layer"
     id="layer1"
     transform="translate(0,-962.36218)">
    <text
       xml:space="preserve"
       style="font-size:40px;font-style:normal;font-variant:normal;font-weight:normal;font-stretch:normal;line-height:125%;letter-spacing:0px;word-spacing:0px;fill:#212721;fill-opacity:1;stroke:none;font-family:Fuder;-inkscape-font-specification:Fuder"
       x="165.67526"
       y="994.78345"
       id="text2982"
       sodipodi:linespacing="125%"><tspan
         sodipodi:role="line"
         id="tspan2984"
         x="165.67526"
         y="994.78345"
         style="font-weight:bold;-inkscape-font-specification:Fuder Bold">psysmon Documentation Project</tspan></text>
    <g
       id="g3505"
       transform="matrix(0.30020188,0,0,0.30020188,712.82348,958.69703)"
       style="fill:#212721;overflow:visible">
      <g
         transform="translate(-114.65321,10.436516)"
         id="g3347"
         style="fill:#212721">
        <g
           id="g3996"
           transform="matrix(0.06633563,0,0,0.06633563,235.25807,-10.309527)"
           style="fill:#212721">
          <g
             transform="translate(1538.3131,0)"
             id="g3440"
             style="fill:#212721">
            <path
               style="fill:#212721;stroke:#000000;stroke-width:3.33109164px;stroke-linecap:butt;stroke-linejoin:miter;stroke-opacity:1"
               d="m 234.88877,376.59216 c 51.06947,-11.91692 101.84076,-24.97465 152.48517,-38.50636 27.38647,-3.23618 54.69606,-7.70928 82.04261,-10.76974 34.38469,-19.11612 73.264,-40.33688 113.97768,-30.26585 20.20308,5.96599 42.17897,13.96261 52.33368,33.98412 10.46473,9.31496 40.02757,0.15494 41.98396,16.293 -16.05716,10.50436 -39.50028,1.75488 -49.73939,20.55728 -16.19214,15.24605 -16.93991,30.96781 -27.28229,57.04018 -10.34238,26.07237 -34.97989,56.22027 -64.64416,77.59784 -29.66427,21.37757 -67.70864,34.80033 -105.75611,34.91385 -22.07222,-1.25699 -48.49768,-3.8059 -67.2532,-9.48276 -25.63373,-10.03381 -62.00874,-11.06565 -68.066,-44.45829 -13.32556,-20.43214 -40.5548,-24.04526 -61.10136,-34.34972 -28.70114,-11.18259 -57.82243,-21.23406 -86.77508,-31.73681 -34.55887,0.19311 -69.575626,2.89463 -103.814866,-2.66518 -22.758092,-12.67012 -29.596334,-53.0075 7.06351,-42.78642 61.386376,3.62958 123.045416,6.75956 184.545846,4.63486 z"
               id="path3224"
               inkscape:connector-curvature="0"
               sodipodi:nodetypes="ccccccczzcccccccc" />
            <path
               inkscape:connector-curvature="0"
               id="path3994"
               d="m 333.46504,515.21504 c -4.62076,11.55191 -1.54025,18.48305 -2.31038,20.79343 -0.77013,2.31039 13.86229,3.08051 16.17267,6.16102 2.31038,3.08051 26.18432,22.33369 29.26483,24.64407 3.08051,2.31038 27.72458,27.72458 27.72458,27.72458 l 5.39089,14.63241 -0.77013,11.55191 37.73623,3.08051 4.62076,-10.78178 -1.54025,-14.63242 -7.70127,-14.63241 -13.86229,4.62076 c 0,0 -11.55191,1.54025 -17.71293,-7.70127 -6.16101,-9.24153 -51.59851,-44.66738 -51.59851,-44.66738 0,0 -3.08051,-1.54025 0,-6.93114 3.08051,-5.39089 3.85063,-16.17267 3.85063,-16.17267 l -25.41419,-10.01165 z"
               style="fill:#212721;stroke:#000000;stroke-width:3.33109164px;stroke-linecap:butt;stroke-linejoin:miter;stroke-opacity:1" />
          </g>
        </g>
      </g>
      <g
         transform="matrix(0.96090419,0,0,0.96090419,4.2339396e-5,12.206061)"
         id="g3446"
         style="fill:#212721">
        <path
           style="fill:#212721;fill-rule:evenodd"
           inkscape:connector-curvature="0"
           transform="translate(0,5.053983e-6)"
           clip-rule="evenodd"
           d="m 163.49,163.68 c 1.066,-0.627 2.478,-1.741 1.68,-2.881 -2.554,1.166 -6.894,-0.503 -9.36,0 -1.705,1.719 -0.777,5.396 -1.92,7.2 0,1.521 0,3.04 0,4.561 0.469,0.492 1.133,0.788 1.681,1.2 -0.085,1.8 -0.315,2.762 -0.72,4.319 -1.07,0.188 -1.319,1.732 -2.4,1.2 -0.617,0.183 -1.017,0.583 -1.2,1.2 -1.52,-0.392 -4.104,-0.911 -6,-2.16 -0.74,-3.159 1.908,-8.919 5.76,-7.44 1.986,-3.382 1.579,-6.654 1.68,-10.56 -2.508,-0.745 -4.545,-0.527 -7.2,-0.96 -1.803,2.677 -2.213,6.747 -5.28,8.16 -0.078,0.882 -0.592,1.328 -0.72,2.16 -0.859,0.181 -1.07,1.009 -1.44,1.68 -1.396,0.663 -1.919,2.175 -3.12,3.12 -2.621,2.063 -6.352,2.794 -8.88,5.04 -3.761,1.163 -6.325,0.799 -10.08,0.72 -3.047,-3.379 -4.862,3.162 -6,5.521 -0.477,0.399 -0.305,-0.022 -0.96,0 -0.188,1.5 -0.707,4.508 -2.16,5.52 -0.473,1.367 -1.083,2.597 -2.16,3.36 0.128,0.928 -0.429,1.171 -0.24,2.16 -2.18,2.459 -3.356,5.924 -5.76,8.159 -0.588,2.213 -2.496,3.104 -2.88,5.521 -0.418,-0.019 -0.746,0.054 -0.96,0.24 0.139,0.778 -0.163,1.116 -0.24,1.68 -0.489,0.419 -0.471,-0.179 -0.96,0.24 -0.313,2.688 -2.236,5.733 -4.08,7.68 -1.401,4.631 -4.587,8.1 -6.72,11.28 0.939,1.46 2.718,2.082 3.12,4.08 0.457,0.103 0.603,0.517 1.2,0.479 1.455,3.684 2.692,7.045 1.44,10.32 0.38,1.528 -0.435,2.217 -1.2,3.6 -0.525,0.95 -0.966,2.254 -1.44,2.88 -1.631,2.155 -3.472,3.195 -6,3.84 -1.055,0.27 -2.233,0.294 -3.12,1.2 -1.134,-0.271 -3.155,-0.55 -3.6,0.24 -1.35,-0.41 -3.284,-0.897 -5.04,-0.96 -0.717,-1.043 -2.499,-1.021 -3.6,-1.68 -0.408,-1.032 -1.446,-1.435 -2.16,-2.16 -0.271,-1.734 -1.797,-2.39 -2.4,-3.36 -0.894,-1.437 -0.963,-2.734 -0.96,-4.319 10e-4,-0.783 -0.628,-1.431 -0.72,-2.16 -0.336,-2.662 0.563,-4.566 1.44,-6.48 0.599,-0.326 -0.487,-0.932 -0.48,-1.2 0.006,-0.229 2.011,-3.895 2.16,-4.08 0.096,-0.119 0.6,0.103 0.72,0 0.65,-0.551 1.405,-1.952 2.16,-2.399 0.668,-0.396 2.389,-0.765 3.12,-0.96 0.169,-0.045 0.23,-0.478 0.24,-0.48 0.823,-0.192 1.876,0.074 2.64,0 2.992,-0.289 4.904,0.633 6.96,1.2 1.432,-0.488 1.252,-2.588 2.88,-2.88 0.125,-1.107 -0.07,-1.293 0.96,-1.68 -0.048,-1.71 1.195,-2.9 1.92,-4.08 0.758,-1.234 1.323,-2.811 2.64,-3.601 1.039,-2.641 2.44,-4.919 4.32,-6.72 1.2,-3.04 3.24,-5.239 4.8,-7.92 -0.204,-0.704 -0.604,0.313 -1.2,0 -0.425,-1.349 0.447,-1.571 0,-2.4 1.091,-0.589 2.047,-1.313 2.16,-2.88 1.022,0.916 -0.304,1.394 0,2.88 1.085,-0.038 2.158,-2.159 2.64,-3.6 0.643,2.086 -0.817,4.14 -2.16,5.04 0.076,0.324 0.342,0.458 0.24,0.96 -0.874,-0.233 -0.111,1.169 -1.2,0.72 -1.037,3.123 -3.053,5.268 -4.32,8.16 -0.28,-0.04 -0.261,-0.379 -0.24,-0.72 -0.857,0.656 -1.832,1.954 -1.44,3.12 -1.036,0.34 -0.932,0.782 -1.2,1.439 -0.725,1.778 -1.752,3.469 -1.92,6 -0.999,0.441 -0.918,1.962 -1.2,3.12 0.678,-1.002 1.673,-1.687 1.68,-3.36 0.967,0.088 0.372,-1.388 1.44,-1.199 0.472,-2.249 1.947,-3.494 2.4,-5.761 1.29,-1.111 1.806,-2.869 2.64,-4.319 0.836,-1.455 2.06,-2.77 2.4,-4.561 2.39,-2.173 3.097,-4.931 5.52,-6.72 1.285,-3.271 2.995,-6.712 5.28,-9.6 -0.099,-1.859 0.958,-2.563 1.44,-3.84 -0.779,-0.129 -0.814,0.26 -1.44,-0.721 -0.29,0.11 -0.076,1.923 -0.24,2.16 0.232,0.646 -0.504,0.278 -0.72,0.48 -1.296,1.214 -2.239,4.255 -2.88,5.279 -0.31,0.496 0.257,0.839 -0.72,0.721 0.193,0.832 -0.357,0.922 -0.24,1.68 -0.241,0.001 -0.286,-0.194 -0.48,-0.24 -0.275,1.325 -0.772,2.428 -2.16,2.641 0.179,-2.716 2.098,-3.423 2.88,-6 0.293,0.026 0.568,0.071 0.48,0.479 0.195,-1.833 1.206,-3.993 3.12,-4.8 -0.04,-0.28 -0.379,-0.261 -0.72,-0.24 1.001,-1.273 1.176,-2.318 1.92,-3.6 0.632,-1.088 1.18,-2.265 1.92,-2.16 -0.537,-1.266 0.475,-1.337 0.72,-2.4 -4.613,-3.067 -9.403,-5.957 -11.76,-11.28 -0.044,-0.354 -0.58,-0.22 -0.96,-0.239 0.593,-1.065 -0.728,-1.944 -0.72,-1.92 -0.119,-0.361 0.092,-0.83 0,-1.2 -0.158,-0.636 -0.749,-1.03 -0.96,-1.68 -0.231,-0.716 -0.086,-1.796 -0.24,-2.641 -0.322,-1.767 -0.885,-3.485 -0.72,-5.04 0.201,-1.893 1.542,-3.421 1.68,-5.52 1.442,-1.998 3.174,-3.706 4.56,-5.76 2.282,-1.478 3.788,-3.732 5.52,-5.76 -5.744,-2.556 -7.531,-10.147 -7.68,-17.52 -1.536,0.782 -3.245,1.275 -4.32,2.16 -0.461,0.379 -0.682,1.05 -1.2,1.44 -0.968,0.729 -2.354,1.06 -3.6,1.68 -0.464,0.231 -0.754,0.7 -1.2,0.96 -0.184,0.107 -0.345,-0.307 -0.48,-0.24 -0.573,0.284 -1.11,0.911 -1.68,1.2 -0.705,0.357 -1.688,0.375 -2.4,0.72 -3.393,1.643 -5.512,4.547 -8.88,5.52 -1.223,1.344 -2.811,1.494 -3.84,3.36 -1.206,-0.166 -1.116,0.964 -2.4,0.72 -1.787,1.813 -4.714,2.485 -6,4.8 -0.578,-0.098 -0.521,0.438 -1.2,0.24 -0.453,0.347 -1.064,0.536 -0.96,1.44 -1.87,0.301 -2.307,0.561 -3.12,1.92 -3.31,0.05 -4.101,2.619 -6.48,3.6 -1.591,1.85 -4.063,2.816 -5.52,4.8 -0.331,0.011 -0.527,-0.112 -0.72,-0.239 -1.293,1.827 -3.416,2.823 -5.76,3.6 -0.343,2.029 0.553,4.16 0.72,6 0.156,1.719 -0.184,3.144 -0.24,4.8 -0.046,1.359 0.328,2.565 0,3.84 -0.198,0.77 -1.062,1.644 -1.44,2.641 -0.512,1.35 -0.665,2.829 -1.2,3.6 -0.882,1.27 -2.263,1.566 -3.6,2.4 -1.655,1.031 -2.923,2.55 -4.56,3.84 -1.026,0.174 -2.242,0.157 -2.64,0.96 -1.842,-0.032 -2.867,0.793 -4.08,0.24 -0.3,0.879 1.215,4.666 0.24,6.96 0.424,0.773 1.782,-0.076 0.96,1.2 2.464,0.958 6.094,0.597 8.4,1.439 0.565,1.686 -1.277,0.963 -0.96,2.4 0.802,0.101 3.77,-0.424 5.04,0.72 -0.202,0.678 -1.099,0.661 -1.2,1.44 -1.717,0.157 -2.184,-0.453 -3.36,0 0.797,0.322 1.829,0.411 2.4,0.96 -1.391,3.19 -5.217,0.336 -7.92,1.439 -1.179,-0.706 -3.269,-0.265 -4.8,-0.479 1.068,1.731 4.193,1.406 6.48,1.92 0,0.319 0,0.64 0,0.96 -0.217,0.663 -0.915,0.845 -1.68,0.96 -0.657,0.703 -0.527,2.193 -1.92,2.16 1.054,2.973 0.284,5.297 0.24,8.399 0.279,1.241 1.511,1.528 1.2,3.36 -0.37,0.51 -0.866,0.894 -1.2,1.439 0.333,2.608 0.146,3.521 0.96,6 -0.106,0.323 -0.136,0.614 -0.48,1.2 1.045,1.676 3.024,2.417 4.8,3.36 0.333,1.373 -0.55,1.529 -0.72,2.4 -1.113,-0.27 -2.412,-0.107 -4.32,-0.48 1.229,1.348 3.313,1.61 5.04,2.4 1.701,0.777 3.493,1.538 4.8,2.64 0.055,1.241 -1.596,1.848 -2.64,1.68 -0.132,-0.021 -0.309,-0.483 -0.24,-0.479 -2.639,-0.146 -6.685,0.008 -9.36,-0.48 0.596,1.055 2.443,1.694 3.6,1.44 -0.21,0.771 0.623,0.497 0.72,0.96 2.936,0.903 5.322,2.357 7.92,3.6 -0.157,0.724 -0.943,0.817 -1.2,1.44 -3.241,-0.423 -6.753,-1.286 -10.32,-0.72 0.363,0.836 1.389,1.01 2.64,0.96 2.505,1.823 5.401,2.612 8.16,4.56 0.558,0.637 0.643,-0.637 1.2,0 -0.025,0.745 0.755,0.685 0.48,1.68 -1.055,0.597 -1.444,0.487 -2.64,0.721 -1.356,-1.351 -2.943,-0.017 -5.28,-0.96 -1.605,1.006 -3.776,0.065 -5.04,1.199 2.093,2.27 6.769,2.225 8.4,5.521 -0.59,2.128 -4.699,0.361 -6,1.2 0.086,1.114 0.935,1.465 1.92,1.68 0.162,1.658 2.241,1.744 2.16,3.12 -0.101,1.71 -1.824,1.109 -3.12,2.399 1.035,2.401 3.179,5.848 0.24,7.681 0.536,2.28 1.851,4.756 1.68,7.2 -0.033,0.47 -0.576,0.351 -0.72,0.96 -0.108,0.457 0.365,0.851 0.24,1.199 -0.206,0.572 -0.967,1.031 -0.96,1.681 0.626,2.823 2.368,6.209 0,8.16 0.543,0.417 0.223,1.697 0.96,1.92 -0.127,1.431 -0.336,2.624 -0.48,3.6 -0.053,0.362 0.245,0.913 0.24,0.96 -0.038,0.337 -0.47,0.407 -0.48,0.72 -0.067,1.976 0.735,4.381 0.48,6.24 -0.216,1.571 -1.436,2.32 -1.2,3.84 -0.772,0.387 -1.591,0.199 -2.16,-0.239 0.506,-0.374 0.871,-0.891 0.72,-1.921 0.307,0.014 0.333,0.308 0.72,0.24 0.716,-1.941 -0.057,-5.502 0.24,-7.68 0.349,-0.147 -0.024,-0.29 0,0 -0.374,-1.448 0.514,-3.567 0.24,-5.28 -0.132,-0.829 -0.784,-1.612 -0.72,-2.399 0.088,-1.08 1.075,-1.857 1.44,-2.641 -0.17,-2.149 -1.043,-3.597 -1.44,-5.52 1.57,-3.198 1.554,-7.066 -0.24,-10.08 0.333,-1.428 0.622,-2.898 1.68,-3.601 -0.159,-1.78 -2.371,-3.274 -1.92,-5.279 0.201,-0.896 1.144,-2.33 2.64,-1.92 -0.194,-2.228 -3.883,-2.982 -4.56,-5.521 1.39,-1.543 3.754,-0.699 6,-1.2 -1.72,-2.52 -5.567,-2.913 -8.16,-4.56 0.135,-2.105 2.844,-1.636 4.08,-2.64 3.055,0.257 4.886,-0.073 7.68,0 -1.832,-1.544 -4.076,-2.063 -6.24,-3.12 -1.85,-0.903 -1.971,-1.418 -4.32,-1.681 -1.801,-0.201 -3.042,-0.118 -3.6,-1.199 -0.156,-0.877 0.663,-1.268 1.2,-1.44 2.824,-0.91 7.187,0.406 10.32,0.24 0.445,-1.461 -2.646,-1.313 -3.36,-2.4 -0.279,0.201 -0.644,0.316 -1.2,0.24 -0.917,-1.328 -3.553,-1.561 -5.52,-1.68 0.226,-1.187 -1.111,-0.81 -0.96,-1.921 0.324,-0.235 0.479,-0.64 0.72,-0.96 3.939,0.391 7.002,0.016 12,0.24 -1.673,-1.687 -5.022,-1.698 -6.72,-3.359 -1.871,0.239 -4.399,-1.41 -6.72,-0.721 -0.433,-0.797 -1.174,-0.751 -0.72,-1.92 0.438,-0.616 0.98,-0.041 1.68,-0.24 1.347,-0.383 0.591,-0.506 1.92,-0.239 0.873,0.175 2.41,0.129 2.4,-0.48 0.397,0.563 1.4,0.52 2.4,0.48 -0.581,-1.659 -3.032,-1.448 -3.36,-3.36 0.071,-0.809 1.064,-0.696 1.2,-1.44 -0.863,-2.387 0.007,-4.133 -0.72,-6.239 0.146,-0.895 0.595,-1.485 1.2,-1.92 -0.032,-0.928 -0.973,-0.947 -1.2,-1.681 0.733,-2.871 -0.087,-4.742 -0.24,-6.479 0.158,-0.719 0.513,0.229 0.96,0 -0.145,-1.216 -1.069,-1.651 -1.44,-2.641 0.024,-1.016 0.787,-1.293 1.44,-1.68 -0.56,-0.714 -2.156,-0.174 -2.88,-1.2 -0.208,-0.929 0.586,-0.854 0.72,-1.439 -0.91,-0.54 -2.361,-0.269 -3.84,-0.48 -0.913,-0.131 -2.55,-0.229 -2.64,-1.439 1.542,-1.75 3.575,-0.331 5.76,-0.721 2.091,-0.372 4.25,0.184 5.76,-0.479 -3.461,-0.704 -5.583,-0.364 -9.12,-0.72 0.296,-0.777 -0.777,-0.184 -0.48,-0.96 -0.151,-1.092 0.858,-0.451 0.96,-0.48 0.591,-0.169 0.348,-0.426 1.2,-0.479 0.94,-0.06 0.592,0.07 1.2,0.239 1.137,0.316 2.793,-0.647 3.6,0.24 0.739,0.179 0.461,-0.659 1.2,-0.479 0.91,0.278 2.223,1.184 2.88,0.479 0.115,-0.855 -0.982,-0.404 -1.44,-0.479 -1.316,-0.218 -2.687,-0.656 -3.6,-0.24 -0.054,-0.187 -0.007,-0.474 -0.24,-0.48 -2.239,0.308 -5.209,-0.795 -7.92,-0.239 -0.017,-0.704 -0.914,-0.526 -0.72,-1.44 0.188,-0.053 0.279,-0.201 0.24,-0.48 2.423,0.146 3.128,0.038 4.56,0.24 0.687,-0.033 0.439,-1.001 0.48,-1.68 0.756,0.116 0.543,-0.736 1.44,-0.48 0.855,-2.674 0.017,-3.715 0,-7.199 -2.675,-0.445 -5.114,-1.127 -7.68,-1.681 -0.582,-1.1 -1.754,-1.214 -2.64,-1.92 -2.583,-2.059 -3.688,-5.33 -5.76,-7.92 -0.458,-0.103 -0.434,-0.686 -1.2,-0.479 -0.513,-2.519 -2.022,-4.193 -1.68,-6.961 0.127,-1.03 0.274,-2.522 0.48,-3.84 0.474,-3.035 1.93,-5.548 2.88,-7.68 2.745,-1.575 3.896,-4.744 7.2,-5.76 0.413,-0.548 1.155,-0.765 1.44,-1.44 1.711,-0.129 3.103,-0.577 3.6,-1.92 5.676,-0.452 11.015,-0.688 16.32,0.96 1.307,2.453 4.207,3.313 4.8,6.48 2.904,-1.736 5.403,-3.877 8.64,-5.28 0.809,-0.392 1.024,-1.376 2.16,-1.44 0.324,-0.235 0.479,-0.64 0.72,-0.96 4.951,-2.875 10.44,-5.986 14.88,-8.879 0.925,-0.603 2.436,-0.825 2.4,-1.92 1.281,0.268 2.936,-0.869 4.08,-1.68 0.908,-0.644 1.5,-1.568 2.4,-2.16 0.585,-0.385 1.395,-0.198 1.68,-0.96 1.176,0.181 1.423,-0.335 1.92,-0.72 1.069,-0.829 2.092,-1.573 3.36,-2.4 1.784,-1.163 3.094,-1.553 5.04,-2.4 2.196,-0.955 3.931,-2.398 6,-3.36 0.42,-0.219 0.834,-0.446 0.72,-1.2 2.693,-0.826 4.485,-2.555 6.72,-3.84 -1.214,-3.266 -1.271,-7.689 -2.16,-11.28 -0.4,0 -0.8,0 -1.2,0 -0.418,0.362 0.246,1.036 -0.48,1.44 -5.063,-0.905 -7.349,-0.575 -11.76,-1.2 0,-0.24 0,-0.48 0,-0.72 -2.893,0.013 -4.495,-1.265 -6.48,-2.16 -0.835,-0.105 -1.8,0.682 -1.92,0 -0.818,0.254 -0.976,1.745 0,1.92 -0.331,0.949 -0.929,1.631 -1.2,2.64 -1.456,-0.583 -2.792,1.251 -4.32,1.2 -1.307,-0.044 -3.8,-1.951 -3.84,-2.88 -0.32,0 -0.64,0 -0.96,0 -1.735,-3.983 -0.251,-9.802 2.88,-12.24 2.97,-0.863 4.232,-0.832 7.44,0 0.048,1.496 1.458,0.991 1.92,2.88 0.294,1.201 -0.521,2.812 -0.24,3.84 0.315,1.153 1.374,1.846 2.64,1.44 0.513,1.887 4.039,0.761 4.56,2.64 0.733,-0.707 2.447,-0.434 3.84,-0.48 0.392,0.108 0.392,-1.308 0,-1.2 2.707,-0.697 6.522,0.427 9.12,0 0.653,-0.752 0.675,-1.793 0.72,-2.64 0.124,-2.336 -0.289,-4.804 0,-7.2 0.368,-3.048 1.624,-6.365 1.92,-9.36 0.224,-2.259 1.137,-3.037 1.44,-4.32 0.277,-1.173 -0.128,-2.232 0,-3.6 0.329,-3.5 1.79,-5.47 3.36,-7.44 1.14,-1.43 2.608,-2.87 2.88,-4.32 0.16,0 0.32,0 0.48,0 -2.465,-1.135 -5.186,-2.014 -8.16,-2.64 0.154,-0.954 -1.256,-0.344 -1.2,-1.2 -2.046,1.05 -4.126,-1.053 -6.24,-0.96 -0.021,-0.378 -0.612,-0.188 -0.48,-0.72 -0.89,0.17 -1.03,-0.41 -1.92,-0.24 -0.022,-0.378 -0.612,-0.188 -0.48,-0.72 -3.78,-0.94 -6.614,-2.826 -10.32,-3.84 -0.075,-0.325 -0.341,-0.458 -0.24,-0.96 -1.43,0.106 -2.874,0.166 -3.36,-1.2 -3.176,0.095 -5.751,-2.379 -9.12,-2.88 -0.003,-0.477 -0.655,-0.305 -0.48,-0.96 -0.72,0 -1.44,0 -2.16,0 -0.093,-0.89 -0.667,-0.49 -0.72,-0.48 -0.301,0.055 -0.162,-0.469 -0.24,-0.48 -0.887,-0.132 -1.828,0.09 -2.88,-0.24 -1.012,-0.317 -2.172,-0.969 -3.36,-1.44 -2.104,-0.835 -4.017,-1.838 -6.24,-2.4 -0.993,0.811 -0.774,2.364 -1.44,3.12 -0.485,0.55 -1.576,0.938 -1.92,1.44 -0.283,0.412 0.015,0.917 -0.24,1.2 -0.105,0.117 -0.584,-0.087 -0.72,0 -0.409,0.264 -0.826,1.379 -1.2,1.68 -0.635,0.511 -2.116,0.997 -3.36,1.68 -0.448,0.246 -0.771,0.779 -1.2,0.96 -1.715,0.724 -4.179,0.304 -5.04,1.44 -0.147,-0.349 -0.29,0.024 0,0 0,1.52 0,3.04 0,4.56 0.89,0.391 1.49,1.07 2.88,0.96 -0.068,1.509 3.152,2.077 2.88,0.96 1.29,0.566 3.073,0.751 2.88,2.16 1.082,0.278 2.833,-0.114 2.88,1.2 -0.4,1.317 -1.145,1.014 -2.64,0.96 -0.018,1.459 -1.886,2.243 -3.84,1.44 -0.06,0.843 -0.767,2.623 -2.88,2.16 0.336,0.624 0.956,0.964 1.2,1.68 -0.224,1.136 -1.173,1.547 -1.68,2.4 0.571,2.229 0.303,5.297 2.64,5.76 0,0.56 0,1.12 0,1.68 -0.581,0.299 -1.166,0.594 -1.92,0.72 0.521,1.137 2.966,2.897 1.2,4.08 0.443,1.317 2.21,1.31 2.88,2.4 -0.205,2.095 -2.872,2.532 -4.32,2.64 2.301,1.695 5.225,1.313 6.96,3.6 -0.677,1.577 -2.49,1.202 -3.6,1.44 0.375,1.226 2.139,1.061 2.64,2.16 -0.167,1.514 -1.751,1.608 -3.12,1.92 1.595,1.493 2.338,3.965 0.24,5.52 -0.162,1.921 0.809,2.71 0.96,4.32 -0.002,0.718 -0.432,1.009 -0.96,1.2 -0.163,3.68 -0.788,5.937 1.2,8.4 -0.952,2.79 0.711,5.362 -0.48,6.96 0.037,1.083 0.84,1.4 0.96,2.4 -0.999,-0.537 -0.451,1.147 -0.72,1.68 -0.857,-0.103 -1.317,-0.603 -1.68,-1.2 0.447,-3.623 -0.375,-5.731 0.48,-8.88 -1.218,-1.443 -1.953,-4.579 -1.68,-6.72 -0.868,-0.366 -0.302,-0.921 -1.44,-1.2 1.564,-0.276 1.796,-1.884 2.64,-2.88 -0.424,-1.657 -1.28,-2.88 -1.68,-4.56 0.317,-1.123 1.62,-1.26 2.16,-2.16 -0.437,-1.963 -3.805,-0.995 -3.84,-3.36 0.543,-1.137 2.436,-0.924 3.6,-1.44 -0.058,-0.343 -0.396,-0.405 -0.48,-0.72 -0.636,0.226 -2.042,-0.151 -3.36,-0.48 0.192,-0.833 -0.357,-0.922 -0.24,-1.68 1.67,-0.817 3.036,-0.822 5.04,-0.96 -1.335,-2.004 -5.96,-0.339 -6.72,-3.36 0.659,-1.581 3.067,-1.413 4.56,-2.16 -0.655,-1.024 -1.808,-1.552 -3.12,-1.92 -0.34,-1.54 0.594,-1.806 1.44,-2.16 -0.117,-1.723 -2.521,-1.16 -2.16,-3.36 0.185,-0.678 1.176,-1.344 1.68,-0.96 0.14,-0.859 -0.71,-0.729 -1.44,-0.72 -0.103,-1.335 -0.321,-1.715 0.48,-2.4 -0.889,-2.148 -0.669,-4.113 0.48,-5.76 -0.597,-0.688 -2.438,-1.394 -2.88,-1.44 -0.674,-0.459 0.33,-1.251 0.24,-1.92 -0.054,-0.747 -1.195,-0.406 -1.92,-0.48 -0.712,-0.967 -1.687,-1.673 -2.4,-2.64 -0.254,-0.894 0.505,-0.775 0.72,-1.2 -0.349,-0.711 -0.936,0.316 -1.68,0 0.293,-1.093 -0.658,-0.941 -0.48,-1.92 0.56,0 1.12,0 1.68,0 2.236,-1.498 5.246,-3.916 3.36,-7.44 -0.733,-0.173 -0.875,0.246 -1.44,0.24 -1.039,-1.047 -2.612,-1.428 -3.84,-2.64 -1.076,-1.062 -1.563,-2.492 -2.64,-3.6 -0.591,-3.584 -1.348,-7.726 -0.96,-11.52 0.115,-1.128 0.835,-2.04 0.48,-3.12 1.567,-1.671 1.551,-3.914 3.36,-5.28 1.464,-1.105 3.629,-0.998 4.8,-2.64 2.923,-0.582 4.954,-0.661 7.68,-0.24 2.691,0.415 3.33,1.099 5.04,2.4 0.95,0.723 2.18,1.207 2.64,1.68 0.224,0.23 0.37,0.983 0.72,1.44 1.037,1.354 1.509,2.065 2.16,3.84 0.94,2.565 1.399,5.495 0.24,7.2 1.337,0.595 2.716,0.95 4.08,1.44 1.42,0.51 2.483,1.357 3.84,1.92 0.341,0.142 0.844,-0.108 1.2,0 0.66,0.2 1.261,0.739 1.92,0.96 1.82,0.609 3.222,0.452 4.08,1.68 1.279,-0.173 3.22,0.675 4.08,1.68 0.48,0 0.96,0 1.44,0 4.557,2.546 11.266,3.791 16.08,7.2 0.999,-0.285 2.521,0.354 3.12,1.2 1.048,-0.168 1.352,0.408 2.4,0.24 0.875,1.205 3.427,0.733 4.08,2.16 4.075,-0.203 7.253,2.141 12.24,2.64 0.637,-2.234 3.652,-2.854 3.12,-5.52 1.053,-0.272 0.789,0.001 1.68,0.24 -0.168,-0.739 -0.168,-0.461 0,-1.2 0.86,1.73 2.222,-1.281 3.6,-2.4 1.116,-0.906 2.333,-1.183 3.12,-1.68 0.076,-0.324 0.342,-0.458 0.24,-0.96 2.869,-2.171 6.545,-3.534 9.36,-5.76 0.825,0.105 1.345,-0.095 1.92,-0.24 1.819,-2.261 4.877,-3.283 7.2,-5.04 1.113,0.4 2.483,-0.391 3.36,-0.96 -0.67,-2.745 -1.119,-5.477 -1.92,-8.16 -0.994,-3.329 -2.738,-6.51 -2.88,-9.84 -1.322,-1.158 -0.898,-4.062 -2.16,-5.28 0.041,-0.359 -0.085,-0.886 0.24,-0.96 -1.237,-1.417 -1.796,-3.919 -2.16,-5.52 -0.559,-0.321 -1.494,-0.266 -1.44,-1.2 -0.28,0.041 -0.261,0.379 -0.24,0.72 -1.214,-0.562 -1.719,0.31 -2.88,0 -1.288,-1.137 -1.609,-2.723 -1.68,-4.56 1.095,-1.386 2.618,-2.343 4.08,-3.36 0.432,0.834 1.332,0.294 1.92,0.48 1.133,0.356 1.873,1.431 3.12,1.44 0.29,1.148 0.644,1.7 0.48,2.64 -0.194,1.116 -1.958,1.307 -1.2,2.4 -0.651,-0.675 -0.598,-0.19 -1.44,0 -0.117,2.043 1.117,4.148 2.16,5.76 -0.227,1.993 1.182,3.979 1.92,5.76 -0.141,0.777 -0.504,0.449 -0.72,0.72 0.137,0.994 0.254,0.886 1.2,0.72 0.145,4.175 2.225,6.415 2.64,10.32 1.447,0.713 0.487,3.833 2.16,4.32 -0.793,1.583 0.699,2.769 0.96,4.08 2.36,0.025 3.679,-0.35 5.04,0.72 3.401,-0.958 9.587,0.172 13.439,-0.96 0.349,-1.076 -0.563,-4.757 0.48,-5.04 -1.577,-1.163 -0.234,-4.427 -1.44,-5.52 0.036,-0.444 0.813,-0.147 0.96,-0.48 -0.114,-0.784 -1.329,-1.588 -0.239,-2.16 1.66,0.78 0.718,3.187 0.96,4.8 0.05,0.332 0.45,0.626 0.479,0.96 0.26,2.898 0.407,4.959 0.721,7.2 1.026,0.424 2.285,-0.034 3.84,0 0.734,0.017 1.393,0.42 2.16,0.48 0.877,0.069 1.931,-0.492 2.88,-0.48 0.816,0.011 1.654,0.414 2.399,0.48 0.372,0.033 0.816,-0.275 1.2,-0.24 1.839,0.167 3.656,1.219 5.521,1.44 0.313,0.037 0.972,-0.238 0.96,-0.24 0.998,0.196 2.011,0.904 3.119,1.2 3.619,0.968 9.216,1.529 12,3.6 4.95,-0.57 6.226,-4.815 9.12,-7.44 -2.322,-2.575 0.536,-5.269 1.92,-7.44 2.366,0.021 4.565,0.009 6.24,1.2 -0.146,0.886 0.864,1.659 1.2,2.64 0.12,0.35 0.512,2.218 0.48,2.4 -0.273,1.542 -1.707,2.347 -3.36,3.12 0,0.4 0,0.8 0,1.2 -0.662,-1.258 -2.787,-1.052 -3.12,-2.64 -3.457,1.823 -4.882,5.678 -7.44,8.4 1.41,0.99 2.629,2.171 4.801,2.4 3.289,2.631 7.401,4.438 10.8,6.96 1.008,1.552 2.292,2.828 4.08,3.6 3.403,-1.477 6.347,-3.413 8.88,-5.76 2.559,-0.402 3.374,-2.546 5.76,-3.12 2.97,-2.317 6.978,-4.235 9.36,-5.76 0.649,-0.416 1.723,-0.545 1.92,-1.44 2.09,0.476 3.184,-1.868 5.28,-2.16 -0.979,-1.552 -1.72,-4.664 -2.16,-6.72 2.037,-2.456 3.87,-4.946 7.439,-5.28 0.28,-0.041 0.261,-0.379 0.24,-0.72 2.199,-0.005 4.881,-0.28 6.48,0.24 2.034,1.553 4.675,3.418 5.52,6.48 0.697,2.528 -0.086,5.368 0,7.92 -0.829,0.93 -0.887,2.633 -1.68,3.6 -2.665,0.768 -5.79,0.694 -9.36,-0.24 -0.234,-1.235 -1.968,-2.05 -3.12,-2.64 -0.646,-0.331 -0.968,-1.111 -1.439,-1.44 -1.249,-0.869 -1.985,-0.402 -3.36,0.48 -0.565,0.363 -1.359,0.769 -1.44,1.44 -1.194,-0.33 -2.607,1.024 -4.079,1.2 -1.209,1.911 -4.135,2.106 -5.521,3.84 -0.317,-0.002 -0.22,-0.42 -0.479,-0.48 -0.357,0.204 -0.348,0.773 -0.48,1.2 -0.343,-0.058 -0.405,-0.396 -0.72,-0.48 -0.345,1.015 -1.512,1.208 -2.4,1.68 -0.443,0.036 -0.147,0.813 -0.479,0.96 -0.182,0.089 -0.555,-0.111 -0.721,0 -0.999,0.667 -1.811,1.438 -2.88,2.16 -3.277,2.215 -6.135,4.341 -9.359,6.48 0.198,0.304 0.841,1.369 1.199,0.72 0.546,1.658 2.831,3.319 3.36,5.76 2.323,3.018 2.884,5.016 4.32,8.88 0.595,0.036 1.164,0.045 1.199,-0.48 0.518,0.358 -0.262,0.678 0.48,0.96 1.647,-0.116 3.856,-0.369 6.24,-0.48 1.271,-0.059 2.964,0.469 3.84,0.24 1.559,-0.408 2.299,-1.854 2.4,-3.36 1.905,-0.286 2.698,-0.82 4.079,-1.2 2.263,0.938 2.862,3.538 3.36,6.24 -0.528,0.831 -1.356,1.363 -1.68,2.4 -0.774,-0.6 -1.781,0.174 -2.641,0.24 -1.105,0.017 -1.826,-1.626 -2.64,-0.48 -0.298,-0.582 -0.643,-1.117 -1.2,-1.44 -2.478,-0.351 -8.736,-0.305 -11.76,0.96 -0.024,0.27 0.349,0.374 0,0.48 0.915,2.146 0.782,4.188 1.2,6 0.215,0.932 0.771,1.731 0.96,2.64 0.071,0.346 -0.265,0.694 -0.24,0.96 0.123,1.309 1.627,2.37 0.96,3.84 1.414,4.07 1.233,8.035 0.48,12.72 1.721,0.9 3.99,0.417 6,0.72 1.612,0.243 2.665,0.684 4.08,0.48 1.702,-0.246 4.28,-0.053 5.52,0 1.459,0.063 3.878,0.818 4.32,0 0.944,0.552 2.23,1.172 3.12,0.48 0.098,0.578 -0.438,0.521 -0.24,1.2 2.012,0.601 2.808,0.292 5.04,0.24 0.279,-0.041 0.261,-0.379 0.24,-0.72 0.479,0.503 1.04,0.633 1.199,-0.24 2.722,1.97 6.688,-0.24 9.841,0.48 0.588,-0.212 0.88,-0.72 1.92,-0.48 0.878,0.001 0.352,1.408 1.439,1.2 1.042,-0.718 1.376,-2.145 1.92,-3.36 1.198,-0.562 1.757,-1.763 2.4,-2.88 2.526,-1.193 4.471,-2.999 7.2,-3.12 3.048,-0.135 4.789,2.473 7.68,3.12 0.853,0.907 1.879,1.641 2.64,2.64 1.623,6.656 -1.246,10.754 -3.359,16.32 -0.49,0.229 -0.95,0.49 -1.44,0.72 0,0.32 0,0.64 0,0.96 -2.448,1.731 -4.647,3.646 -8.16,3.36 -2.647,-0.216 -5.522,-1.51 -6.96,-3.12 -2.255,-2.526 -2.411,-5.711 -2.16,-10.8 -1.268,-0.999 -1.693,-0.463 -2.88,-0.96 0.319,-0.936 1.072,-0.048 1.681,-0.48 -1.45,-0.938 -4.362,-1.025 -5.761,-0.72 0.457,1.144 3.342,-0.142 3.841,0.96 -0.129,1.345 -0.773,0.017 -1.2,0 -0.258,-0.01 -0.623,0.235 -0.96,0.24 -0.954,0.014 -1.972,-0.342 -2.641,0 -0.682,-1.264 -1.042,-0.041 -1.439,0 -0.126,0.013 -0.766,-0.575 -1.44,-0.72 -0.532,-0.114 -1.476,0.051 -1.92,0 -2.679,-0.306 -4.642,-0.827 -6.72,-0.72 -1.013,0.052 -1.888,-0.431 -2.641,-0.48 -1.474,-0.095 -2.583,0.648 -3.6,-0.24 -0.66,0.139 -1.002,0.597 -1.68,0.72 -2.016,-1.866 -4.794,0.083 -6.96,-1.44 -0.302,0.099 -0.491,0.31 -0.48,0.72 -1.723,-0.426 -3.1,0.381 -4.319,-0.72 -0.455,0.819 -2.399,-0.068 -3.841,0.24 -0.853,1.746 -1.247,2.55 -1.68,4.8 -1.839,3.761 -4.331,6.869 -5.52,11.28 -1.45,0.546 -1.296,2.878 -2.641,4.08 6.183,4.138 11.009,9.632 17.28,13.68 0.721,-0.799 1.781,-1.258 1.92,-2.64 0.851,0.511 3.471,0.343 5.04,-0.24 0.057,0.733 0.899,0.18 1.2,0.24 0.77,0.154 2.79,0.757 3.359,1.2 0.89,0.692 2.452,4.658 2.16,6.24 -0.375,2.037 -2.88,2.621 -3.359,4.8 -0.652,-0.404 -1.124,0.381 -1.44,-0.479 -3.752,4.902 -10.128,-1.375 -9.12,-7.2 -3.376,-2.052 -6.261,-4.645 -9.12,-7.2 -1.734,-1.551 -3.511,-2.722 -5.52,-4.08 -0.088,-0.06 -0.163,-0.395 -0.24,-0.48 -0.854,-0.938 -2.133,-1.386 -2.88,-2.4 -2.026,1.795 -3.733,4.616 -5.521,6.24 -0.214,0.195 -0.044,0.51 -0.239,0.72 -1.051,1.124 -2.677,1.847 -3.84,2.88 -0.604,0.537 -0.88,1.443 -1.44,1.92 -0.333,0.283 -0.859,0.173 -1.2,0.48 -0.943,0.85 -1.688,2.035 -2.64,2.88 -0.646,0.572 -1.665,0.723 -1.92,1.68 -1.526,0.475 -2.314,1.687 -3.84,2.16 0.635,1.766 1.138,3.662 2.64,4.561 -0.003,0.317 -0.421,0.219 -0.48,0.479 0.548,0.653 0.47,1.932 1.44,2.16 0.361,3.43 2.748,6.011 2.64,9.12 2.569,1.189 2.383,4.719 4.32,6 -0.063,0.337 -0.526,0.273 -0.72,0.479 0.163,0.477 0.73,0.55 0.96,0.961 0.042,1.478 0.104,2.935 1.2,3.359 -0.15,1.83 0.79,2.569 2.159,2.88 0.069,1.691 0.443,3.078 1.44,3.84 -0.026,0.454 -0.794,0.167 -0.72,0.721 1.222,0.602 0.804,1.706 2.16,2.399 -0.221,1.666 1.496,2.109 0.96,3.36 0.377,0.022 0.832,-0.032 0.72,0.48 3.86,-0.544 6.382,0.359 9.12,1.92 1.742,2.57 4.341,5.722 2.16,9.6 -0.03,0.601 -0.459,0.751 0.239,0.96 -0.978,0.542 -1.149,1.891 -1.439,3.12 -0.946,0.653 -1.558,1.643 -2.16,2.64 -2.878,0.339 -3.724,2.141 -6,2.88 -1.279,0.416 -1.935,0.824 -2.88,0.48 0.438,1.449 -0.618,-0.312 -1.44,0.72 0.619,-1.054 -0.524,-0.367 -0.96,-0.479 -0.945,-0.245 -1.486,-2.133 -1.439,0 -0.171,-1.03 -0.854,-1.547 -1.92,-1.681 0,-0.239 0,-0.479 0,-0.72 -1.743,-1.55 -2.607,-4.668 -2.641,-7.2 1.588,-3.852 2.99,-7.89 5.76,-10.56 0.138,-0.941 -0.832,-1.497 -0.239,-2.16 -0.063,-0.338 -0.526,-0.273 -0.721,-0.48 0.319,-1.964 -1.399,-3.388 -1.92,-4.8 -0.076,-0.208 0.302,-0.33 0.24,-0.479 -1.594,-3.869 -3.989,-7.048 -5.28,-11.521 -1.206,-1.297 -2.42,-3.787 -2.399,-5.52 -1.969,-3.231 -3.738,-6.662 -4.561,-11.04 -1.202,-1.358 -1.574,-3.546 -2.399,-5.28 -2.665,1.016 -4.99,2.37 -7.681,3.36 -1.274,-0.56 -1.287,0.325 -2.399,0.479 1.518,1.73 0.695,4.447 1.68,6.48 1.192,1.226 3.156,1.476 3.12,2.88 -0.049,1.91 -2.444,2.819 -4.32,3.84 -0.293,-0.347 -0.916,-0.364 -1.199,-0.72 0.796,-1.402 -0.057,-2.245 -0.48,-3.601 0.283,0.276 0.849,0.272 1.44,0.24 0.079,-4.317 -0.81,-5.123 -1.921,-8.399 -1.55,0.624 -2.676,0.936 -3.84,1.199 -1.488,0.338 -3.14,1.332 -4.56,1.681 -1.122,0.275 -1.036,-0.065 -1.92,0.239 -1.553,0.537 -2.73,0.376 -3.36,1.44 1.255,4.581 3.653,9.415 4.8,13.68 0.163,0.606 0.079,1.35 0.24,1.92 0.5,1.772 1.438,3.321 1.92,5.04 0.604,2.156 0.91,4.267 1.681,6.24 0.564,1.448 1.453,2.887 2.399,4.08 0,0.32 0,0.64 0,0.96 0.539,0.741 1.18,1.381 1.92,1.92 3.008,-0.604 6.967,0.216 7.681,3.36 0.473,2.084 -0.702,3.746 -1.681,5.76 -0.919,0.201 -1.591,0.649 -1.92,1.44 -1.08,0.439 -2.305,0.734 -2.88,1.68 -4.124,1.409 -8.499,1.551 -10.56,-1.92 -2.164,-3.645 0.13,-7.381 2.399,-9.36 2.046,-0.122 2.312,-1.572 4.08,-1.439 -3.123,-5.997 -5.581,-13.938 -6.96,-20.881 -2.202,-3.541 -2.944,-9.333 -4.56,-12.72 -3.116,0.777 -6.251,0.127 -8.881,1.2 0.028,0.853 -0.173,1.934 0.721,1.92 -0.655,0.879 -0.103,1.484 -0.721,2.4 -1.214,-0.175 -1.421,0.658 -2.399,0.72 -0.435,-1.164 -2.439,-0.76 -2.157,-2.641 z M 38.69,28.08 c -2.382,-0.735 -5.41,-1.433 -7.68,0 -0.55,0.348 -2.751,2.258 -3.12,2.64 -1.274,1.322 -1.21,3.659 -1.44,6 -0.333,3.392 0.479,5.69 1.44,8.4 -0.932,0.951 0.154,1.658 0,3.12 1.646,0.732 2.477,1.678 4.08,1.92 2.374,0.358 3.061,-0.67 4.08,-0.96 -0.099,0.028 0.13,0.538 0.48,0.48 1.524,-0.252 5.054,-2.643 6.96,-4.32 1.252,-1.103 1.992,-3.604 2.16,-5.28 -4.284,1.369 -0.963,-4.72 -1.68,-6.72 -0.771,-0.675 -2.005,-1.601 -2.88,-1.44 -0.111,-0.751 0.208,-1.071 0.96,-0.96 -0.786,-1.294 -1.913,-2.248 -3.36,-2.88 z m 217.68,9.36 c 1.262,0.408 3.495,1.622 2.16,3.12 2.045,1.123 3.757,3.424 6.48,3.12 0.037,-0.282 -0.042,-0.681 0.239,-0.72 0.435,1.208 1.09,0.417 2.4,0.48 1.1,-2.498 2.062,-7.668 0,-9.12 -0.897,0.334 0.385,1.779 -0.72,2.16 -1.21,-0.87 -1.253,-2.908 -1.44,-4.8 -3.619,-2.122 -9.591,1.041 -9.119,5.76 z M 209.089,34.8 c 1.405,-0.059 1.721,-1.444 2.881,-0.48 0.448,-0.671 1.068,-1.171 1.199,-2.16 -2.466,-1.183 -3.625,0.542 -4.08,2.64 z m 5.281,1.2 c 0.692,-0.787 0.171,-2.768 -0.96,-3.12 -0.86,1.146 -0.03,2.516 0.96,3.12 z m -50.161,4.8 c 0.356,1.362 0.222,1.938 0.48,3.12 3.931,-0.82 7.988,-2.252 11.28,-2.4 -0.633,0.967 -1.905,1.294 -3.601,1.2 -1.63,1.482 -5.834,1.462 -7.68,2.88 0.213,0.507 1.023,0.417 0.96,1.2 -1.553,-0.316 -0.212,2.768 0.24,1.92 -0.188,-0.053 -0.279,-0.201 -0.24,-0.48 0.591,0.358 0.537,0.986 1.439,0.48 0.4,0.477 -0.021,0.305 0,0.96 4.501,-0.859 8.671,-2.049 12.721,-3.36 -0.608,-1.472 -1.97,-2.191 -2.641,-3.6 1.861,-0.754 3.327,1.792 4.32,3.36 1.707,-0.029 3.011,-0.686 4.08,-0.96 2.183,-0.559 4.23,-0.221 5.52,-0.96 -8.448,-2.178 -17.999,-4.759 -26.878,-3.36 z m -17.759,5.28 c -0.742,1.818 -3.227,1.894 -3.84,3.84 1.236,0.541 2.553,1.391 4.08,1.68 1.635,0.31 4.172,0.589 5.28,0.24 1.747,-0.551 1.623,-2.475 3.36,-2.64 -0.331,1.108 -1.245,1.634 -1.68,2.64 1.812,0.056 4.257,-0.153 6.72,-0.48 0.353,-1.595 1.006,-3.663 2.16,-3.12 0,-0.8 0,-1.6 0,-2.4 -3.88,0.229 -7.098,0.409 -8.4,-2.64 -0.04,-0.696 1.386,-1.153 0.721,-1.68 -3.088,1.233 -5.435,3.206 -8.401,4.56 z m 10.32,-2.64 c 1.753,0.861 3.321,0.942 5.52,0.96 0.211,-1.177 0.448,-1.462 0,-2.88 -2.67,0.125 -4.454,-0.024 -5.52,1.92 z m -14.4,-0.72 c 0.62,0.5 1.982,0.205 2.16,-0.48 -0.481,0.399 -1.78,-0.02 -2.16,0.48 z m 5.04,0 c 0.242,1.318 1.439,0.211 1.92,-0.24 -1.125,0.039 -1.365,0.05 -1.92,0.24 z m -0.24,0 c -0.187,0.054 -0.474,0.007 -0.48,0.24 0.186,-0.054 0.473,-0.007 0.48,-0.24 z m -14.4,4.56 c -0.171,0.108 -0.365,-0.316 -0.48,-0.24 -0.342,0.225 -0.5,0.684 -0.96,0.96 -1.705,1.023 -4.472,2.917 -5.04,2.16 -3.414,1.565 -6.102,4.511 -6,7.68 5.747,-4.974 13.274,-8.166 18.24,-13.92 -2.223,0.36 -3.741,2.088 -5.76,3.36 z m 9.6,-1.2 c -0.759,-0.665 -1.54,0.69 -1.44,1.68 3.003,-0.117 3.918,-2.322 5.76,-3.6 -1.651,-0.483 -3.503,0.782 -4.32,1.92 z m 58.799,36.72 c -0.94,-0.979 -1.39,-2.45 -1.68,-4.08 -0.821,-0.539 -1.189,-1.53 -1.2,-2.88 -1.289,-1.437 -2.357,-3.808 -2.64,-5.52 -0.055,-0.346 -0.717,-0.083 -0.72,-0.48 -3.172,-6.029 -7.036,-11.364 -10.32,-17.28 -4.154,1.045 -8.144,2.257 -12.48,3.12 -0.451,0.423 0.328,0.743 -0.479,0.96 -0.431,0.031 -0.507,-0.293 -0.96,-0.24 -0.12,0.755 0.523,0.938 0,1.44 -0.388,-0.068 -0.413,0.227 -0.72,0.24 0.174,-0.734 -0.414,-0.706 -0.24,-1.44 -1.931,1.727 -4.439,0.368 -6.24,2.4 -0.039,-0.282 -0.438,-0.203 -0.72,-0.24 -0.174,1.359 0.641,2.228 -0.48,2.64 0.609,-0.557 1.322,1.482 1.2,1.92 -0.138,0.495 -0.812,0.265 -0.72,0.72 0.032,0.162 0.566,0.01 0.72,0.24 0.305,0.458 -0.092,1.252 0.48,1.44 0.574,-0.145 1.095,-0.345 1.92,-0.24 1.206,1.808 4.196,-0.025 6.72,0.24 -0.652,-2.557 -2.605,-5.52 -1.92,-7.92 0.895,1.57 2.012,3.978 1.68,6 0.708,-0.006 0.973,0.951 0.48,1.44 1.676,1.388 4.114,0.812 5.76,1.92 0.679,0.198 0.622,-0.338 1.2,-0.24 6.021,2.539 10.207,6.913 13.68,12 0.124,1.555 0.798,2.562 1.68,3.36 1.271,7.306 0,12.593 -3.12,18 -1.423,1.216 -3.117,2.162 -4.319,3.6 -2.837,2.443 -7.129,3.432 -10.8,5.04 0.096,1.461 -0.302,3.691 -1.2,3.36 0.204,-0.862 0.03,-1.541 0.24,-2.64 0.224,0.147 0.885,0.559 0.72,-0.24 -0.219,-0.657 -0.841,0.426 -1.2,-0.24 -2.017,1.599 -6.263,1.368 -8.4,2.16 0.117,-0.897 -0.849,0.059 -1.199,-0.72 -2.554,0.293 -3.986,-0.969 -6.721,-0.96 -1.356,2.125 -5.325,1.377 -6.72,-0.24 -2.224,0.896 -4.822,1.417 -6.96,2.4 0.787,1.213 2.089,1.911 3.36,2.64 0.035,1.486 1.859,1.817 2.16,3.36 0.425,2.18 -0.912,3.971 -1.92,5.52 1.94,3.34 4.665,5.896 7.68,8.16 0.997,-1.006 3.153,-2.123 4.08,-2.4 -0.226,2.015 -3.576,0.904 -3.36,3.36 2.07,-0.23 2.325,1.354 4.32,1.2 -0.068,0.388 0.227,0.413 0.239,0.72 1.048,-0.027 1.484,-0.398 1.921,0.48 -2.928,-0.273 -4.828,-1.573 -7.2,-2.4 -1.932,0.308 -2.992,1.488 -4.32,2.4 0.358,0.361 1.368,0.072 1.2,0.96 -1.068,0.028 -1.239,-0.84 -2.4,-0.72 -1.306,0.806 -3.115,2.283 -4.56,2.16 -0.937,1.464 -3.113,1.688 -4.8,2.4 0.267,1.014 1.621,0.939 1.92,1.92 -0.614,0.26 -1.144,-0.729 -1.44,0 1.289,1.111 2.137,2.664 2.64,4.56 1.706,-0.138 2.898,-2.058 4.08,-1.92 -0.809,1.351 -2.617,1.703 -3.6,2.88 1.308,2.217 2.019,6.621 0.72,9.36 2.222,0.708 6.089,1.618 8.4,0.72 0.966,-0.166 0.59,1.011 1.439,0.96 6.154,0.573 13.974,0.416 19.921,-0.479 -1.423,-2.602 -1.174,-5.5 -3.36,-7.44 0.111,1.26 1.447,2.369 -0.24,2.88 -1.177,-0.393 -1.782,-0.917 -1.92,-1.92 -0.48,-3.494 4.486,-3.979 7.44,-4.32 -0.061,0.78 0.878,0.563 1.199,0.96 0.671,0.689 0.454,2.267 0.48,3.601 -0.874,0.966 -2.387,1.293 -3.36,2.16 0.682,1.318 0.688,2.574 0.96,3.84 0.701,0.271 2.116,-0.524 2.88,-0.96 2.439,0.456 4.669,-1.603 7.2,-1.44 -0.011,-0.41 0.179,-0.621 0.48,-0.72 0.214,0.187 0.542,0.258 0.96,0.24 2.632,-1.218 4.941,-2.112 8.399,-2.88 0.235,-0.246 0.475,-0.486 0.721,-0.721 2.208,-0.191 3.062,-1.738 5.04,-2.16 -0.391,-2.489 -1.92,-3.84 -2.4,-6.239 -0.512,-0.288 -1.307,-0.293 -1.439,-0.96 0.515,-0.36 -0.172,-0.586 0.239,-1.2 -1.862,-1.337 -1.811,-4.589 -4.56,-5.04 -1.399,-3.561 -2.88,-7.041 -5.04,-9.84 0.06,-0.261 0.478,-0.163 0.479,-0.48 -0.656,-0.791 -1.298,-1.125 -1.92,-2.16 0.06,0.099 0.343,-0.527 0.24,-0.72 -0.07,-0.134 -0.581,-0.247 -0.72,-0.48 -0.239,-0.4 -0.164,-0.892 -0.48,-1.44 -0.32,-0.555 -1.075,-0.975 -1.2,-1.44 -0.054,-0.204 0.359,-0.824 0.24,-1.2 -0.414,-1.313 -1.332,-2.812 -2.88,-3.36 -0.226,1.055 -1.014,1.547 -0.96,2.88 0.969,0.667 2.338,-0.143 2.4,1.68 -1.049,-0.008 -1.418,0.663 -2.4,0.72 -2.555,-0.479 -2.61,-3.054 -1.68,-6 1.466,0.186 0.937,-1.624 1.92,-1.92 1.325,0.169 2.717,-0.393 5.04,-0.24 1.433,1.261 3.456,4.21 1.68,6.48 1.191,3.689 3.782,5.978 5.04,9.6 1.85,2.21 3.367,5.28 5.28,8.4 0.495,0.808 0.953,1.456 0.72,2.4 0.449,-0.031 0.57,0.206 0.72,0.48 1.121,2.056 1.919,4.229 3.12,6.24 -0.155,0.244 -0.552,0.248 -0.479,0.721 0.308,0.652 0.749,1.17 0.96,1.92 3.153,-1.392 5.85,-3.666 8.399,-6 0.788,-0.721 1.382,-1.68 2.16,-2.4 1.324,-1.225 2.873,-2.036 4.08,-3.36 0.498,-0.546 0.703,-1.38 1.2,-1.92 0.403,-0.438 1.078,-0.531 1.439,-0.96 0.12,-0.143 -0.103,-0.563 0,-0.72 0.533,-0.817 1.828,-1.318 1.921,-2.4 -1.832,-0.859 -2.909,-2.313 -5.521,-2.88 -0.348,0.292 -0.321,0.958 -0.96,0.96 0.018,-0.817 -0.706,-0.894 -1.2,-1.2 0.181,0.608 -0.917,1.126 -0.96,0.72 0.499,-1.605 -0.456,-3.009 -1.92,-3.36 -0.505,-5.566 7.389,-5.765 9.12,-2.16 -0.234,0.965 -0.714,1.686 -1.68,1.92 -0.586,-0.374 -0.693,-1.227 -1.44,-1.44 -0.766,-0.206 -0.742,0.377 -1.2,0.48 -0.131,1.115 0.938,0.999 1.681,1.44 0.34,0.202 0.586,1.359 1.199,0.96 0.927,1.473 2.653,2.147 4.32,2.88 3.247,-6.033 6.684,-11.876 9.12,-18.72 -1.73,-0.163 -3.667,-0.706 -5.28,0.24 -0.895,0.255 -0.38,-0.9 -1.2,-0.72 -1.8,0.72 -2.636,-0.088 -4.56,0 -0.071,-0.213 -0.48,-1.22 -0.72,-0.48 0.371,0.109 0.012,0.273 -0.24,0.24 -3.747,-0.5 -7.992,-2.724 -13.2,-2.88 0,0.32 0,0.64 0,0.96 0.628,0.347 1.735,0.132 2.4,0.96 -0.636,0.862 -1.312,2.091 -2.4,1.2 -1.417,1.033 -3.827,1.349 -5.28,1.68 -0.492,-0.467 -1.171,-0.749 -1.199,-1.68 1.406,-3.233 1.726,-7.555 4.319,-9.6 0.859,0.372 2.853,-0.182 3.841,-0.48 1.75,1.142 2.462,2.773 2.159,5.04 7.265,2.567 15.34,2.44 22.561,1.2 1.247,-6.344 -0.754,-13.18 -1.92,-18.24 -0.385,-1.669 -0.533,-3.414 -0.96,-5.04 -0.747,-2.847 -2.27,-5.338 -3.36,-7.92 -1.267,-2.999 -2.054,-5.345 -3.84,-7.92 -0.129,-0.187 -0.336,-0.248 -0.48,-0.48 -0.75,-1.207 -2.138,-3.082 -3.6,-3.84 -3.992,2.682 -8.621,5.893 -12.96,7.44 -0.066,-0.494 -0.895,-0.226 -0.96,-0.72 -0.063,-1.104 0.866,-1.214 1.2,-1.92 0.07,0.56 0.649,0.56 0.72,0 -0.326,-0.074 -0.199,-0.601 -0.24,-0.96 -2.004,0.236 -2.286,2.193 -2.64,4.08 1.673,-0.105 3.962,0.843 5.76,0.48 0.306,-0.062 0.859,-0.748 1.2,-0.72 -0.078,-0.006 0.219,0.448 0.479,0.48 0.865,0.107 2.209,0.109 1.92,1.44 -1.242,0.994 -5.617,-0.124 -6,0.96 -0.586,-0.213 -1.04,-0.559 -1.92,-0.48 -0.738,0.438 0.482,1.345 -0.239,1.68 -0.192,-0.449 -0.401,-0.879 -0.48,-1.44 -1.729,0.222 -3.28,-0.405 -3.6,-1.68 -0.465,-1.855 2.217,-4.418 0.479,-5.76 0.85,-0.13 0.591,0.85 1.44,0.72 0.809,-1.799 2.487,-2.793 4.8,-1.92 0.206,-0.194 0.143,-0.657 0.48,-0.72 -0.083,1.281 0.879,1.979 0.239,3.12 3.525,-1.195 6.032,-3.408 9.12,-5.04 -0.748,-1.812 -2.691,-2.428 -3.6,-4.08 -5.893,-3.256 -15.22,-9.972 -22.8,-11.52 -0.943,-0.192 -1.672,0.209 -2.641,0.24 -2.395,0.076 -5.459,0.55 -8.399,1.44 -0.457,-0.103 -0.604,-0.517 -1.2,-0.48 1.2,1.839 2.524,3.556 3.84,5.28 2.408,-0.792 5.017,-1.383 7.92,-1.68 -0.307,-1.917 -2.631,-0.45 -3.12,-1.44 1.072,-3.178 4.718,-0.341 6,1.2 0.714,0.858 1.536,2.178 2.4,3.36 1.614,2.209 2.982,4.347 3.359,6.48 1.026,0.56 2.52,2.973 2.16,4.8 -1.705,-2.515 -3.871,-6.015 -6,-9.12 -0.199,-0.291 -0.213,-0.839 -0.479,-1.2 -0.325,-0.439 -1.149,-0.809 -1.681,-1.44 -0.684,-0.813 -0.862,-1.728 -1.199,-1.92 -0.291,-0.166 -1.093,0.533 -0.48,-0.48 -1.201,0.056 -2.024,1.027 -3.12,0.48 -1.713,1.14 -3.834,0.427 -5.04,1.92 0.192,1.249 1.102,2.561 1.92,3.84 0.659,1.029 1.462,1.737 1.92,2.88 0.402,1.003 0.833,1.724 0.96,2.64 0.973,0.345 1.852,1.388 1.44,2.4 1.892,0.67 1.248,3.033 3.12,4.08 0.03,0.43 -0.294,0.506 -0.24,0.96 0.442,0.358 0.842,0.758 1.2,1.2 -0.127,0.193 -0.25,0.39 -0.24,0.72 1.108,0.116 0.667,1.285 0.96,1.92 0.752,1.628 1.997,3.217 2.16,5.28 1.493,0.703 1.971,2.46 1.682,4.317 z M 139.49,45.6 c 0.282,0.303 0.997,0.192 0.96,-0.48 -0.547,-0.067 -0.903,0.058 -0.96,0.48 z m -0.48,0.24 c -0.869,1.087 -2.593,1.567 -3.6,2.64 -0.237,0.252 -0.209,0.757 -0.48,0.96 -1.066,0.8 -2.437,1.536 -3.84,1.44 -0.642,1.998 -2.912,2.369 -4.32,3.6 -0.331,0.01 -0.527,-0.113 -0.72,-0.24 -0.157,0.274 -0.247,0.701 -0.48,0.96 -0.77,0.854 -2.702,2.649 -3.36,2.88 0.016,-0.005 -0.26,-0.428 -0.48,-0.24 -0.319,0.273 -0.359,1.263 -0.72,1.44 0.262,1.178 0.667,2.212 1.68,2.64 4.772,-4.908 10.019,-9.341 16.08,-12.96 -1.111,-1.438 1.304,-2.632 0.24,-3.12 z m 44.4,5.52 c -0.593,-1.808 -1.773,-3.027 -3.12,-4.08 -2.673,1.007 -6.04,1.319 -8.399,2.64 -1.812,-0.014 -3.242,0.387 -3.841,0.96 0.79,1.371 1.322,2.998 1.921,4.56 5.229,-0.885 8.63,-2.512 14.399,-3.6 0.242,-0.722 -0.535,-0.425 -0.96,-0.48 z m -22.08,-0.72 c 0.284,0.276 0.849,0.272 1.44,0.24 0.139,-0.779 -0.164,-1.117 -0.24,-1.68 -0.24,0 -0.48,0 -0.72,0 -0.191,0.448 -0.401,0.879 -0.48,1.44 z m 4.32,-0.48 c 0.16,0 0.32,0 0.479,0 0.269,-0.346 0.259,-0.585 -0.239,-0.72 0.01,0.33 -0.113,0.527 -0.24,0.72 z m -24.72,0.96 c -3.436,3.205 -6.651,6.629 -8.64,11.28 -0.33,-0.01 -0.527,0.113 -0.72,0.24 0.108,1.228 -0.657,1.583 -0.72,2.64 4.605,0.466 10.341,-1.072 15.36,-2.16 -0.07,-1.031 1.089,-1.738 1.44,-2.88 0.106,-0.346 -0.153,-0.875 0,-1.2 0.218,-0.462 0.755,-0.61 1.2,-1.44 0.207,-0.386 0.325,-1.297 0.48,-1.44 0.301,-0.277 1.159,0.777 0.72,-0.24 0.472,-1.144 0.609,-1.417 0.96,-2.88 -3.524,-0.045 -7.034,-0.364 -10.08,-1.92 z m 23.279,1.68 c -0.122,-1.186 -1.958,-1.143 -2.64,-0.48 -0.194,2.516 0.55,4.258 0.72,5.76 2.469,-0.789 4.736,-1.74 6.96,-2.16 -0.268,-0.852 -1.033,-1.207 -0.72,-2.64 -1.34,0.565 -0.796,-2.251 -2.4,-2.16 -1.016,0.183 -1.28,1.119 -1.92,1.68 z M 137.81,51.84 c 0.377,-0.023 0.833,0.032 0.72,-0.48 -0.16,0 -0.32,0 -0.48,0 0,0.241 -0.195,0.286 -0.24,0.48 z m -5.52,6.96 c -0.349,0.147 0.024,0.29 0,0 0.281,-0.039 0.203,-0.438 0.24,-0.72 0.543,-0.337 0.789,-0.971 1.44,-1.2 0.611,-2.05 3.17,-3.361 3.36,-5.04 -2.43,1.57 -4.086,3.913 -5.04,6.96 z m 21.12,-6.96 c -0.187,0.054 -0.474,0.006 -0.479,0.24 0.185,-0.054 0.472,-0.007 0.479,-0.24 z m -3.6,5.52 c 0.031,-0.594 -0.293,-0.408 -0.24,0 -0.349,0.147 0.024,0.29 0,0 0.08,0 0.16,0 0.24,0 0,0.24 0,0.48 0,0.72 -0.556,-0.076 -0.921,0.039 -1.2,0.24 -0.348,0.907 0.659,0.46 0.48,1.2 -0.477,0.399 -0.305,-0.022 -0.96,0 0.996,1.428 -0.47,1.104 -0.24,2.88 4.785,-0.976 9.038,-2.483 13.2,-4.08 -0.359,-1.992 -0.724,-3.506 -0.96,-5.76 -3.492,0.196 -5.043,0.628 -7.92,0.72 -0.578,1.094 -1.459,2.699 -2.4,4.08 z m -30.24,-3.84 c 0.157,0.157 -0.101,-0.101 0,0 l 0,0 z M 118.61,54 c 0.157,0.157 -0.101,-0.101 0,0 l 0,0 z m -2.16,2.4 c 0.697,0.263 1.703,0.217 2.4,0.48 -0.338,-0.917 0.627,-1.748 0,-2.16 -0.323,0.976 -0.613,0.051 -1.2,0 -0.332,0.628 -1.16,0.76 -1.2,1.68 z m 7.2,6.72 c 1.247,0.833 2.575,1.585 4.32,1.92 0.063,-0.337 0.526,-0.274 0.72,-0.48 -0.166,-1.846 1.028,-2.332 0.96,-4.08 0.771,-1.034 1.306,-2.34 1.92,-3.6 0.311,-0.638 1.366,-1.657 0.48,-1.92 -3.218,2.829 -6.029,4.718 -8.4,8.16 z m -6.24,-2.64 c -0.534,-0.187 -1.301,-0.139 -1.44,-0.72 0.474,-0.567 -0.429,-1.8 -0.96,-2.16 -0.702,0.738 -1.247,1.633 -2.64,1.68 -0.555,1.285 -1.711,1.969 -2.4,3.12 1.266,1.316 2.672,0.707 4.8,1.68 0.767,-1.313 2.22,-1.94 2.64,-3.6 0.947,-0.093 1.104,-0.976 1.68,-1.44 0.053,-0.773 -0.424,-1.016 -0.24,-1.92 -1.342,0.778 -0.466,2.483 -1.44,3.36 z m 33.36,2.4 c -0.046,-0.272 -0.241,-0.133 -0.24,0 -1.078,0.375 -1.555,0.507 -3.12,0.72 -0.312,0.663 -0.174,1.603 -1.2,0.96 0.097,1.325 0.079,2.459 -0.24,3.84 -0.27,1.169 -0.731,2.303 -0.48,3.36 -0.494,0.066 -0.226,0.894 -0.72,0.96 0.557,1.865 -1.516,5.121 -0.48,7.68 -0.24,0 -0.479,0 -0.72,0 -0.147,-0.349 -0.29,0.024 0,0 -0.019,4.81 -1.083,7.431 -0.48,12 2.151,-0.066 3.943,-1.112 6.24,-1.92 0.834,-4.112 0.496,-9.938 1.68,-13.2 0.124,-0.34 0.757,-0.771 0.96,-1.2 0.747,-1.578 1.326,-2.646 2.4,-4.08 1.78,-2.374 4.281,-4.115 7.44,-5.76 0.678,0.198 0.621,-0.338 1.2,-0.24 -0.315,-1.457 -1.478,-3.819 -1.2,-5.28 0.155,-0.818 0.585,0.089 -0.24,-0.72 -0.475,-0.466 -0.148,-1.148 -0.72,-0.72 -2.971,1.611 -6.995,1.885 -10.08,3.6 z m -28.8,2.16 c -0.102,0.458 -0.686,0.434 -0.48,1.2 2.225,0.769 3.564,1.168 5.52,1.92 0.551,-0.679 0.816,-1.109 0.48,-2.16 -2.272,0.032 -3.213,-1.267 -5.28,-1.44 0.039,0.279 -0.053,0.427 -0.24,0.48 -0.325,-1.892 -1.341,-2.525 -2.16,-4.32 -1.243,0.997 -2.279,2.201 -2.88,3.84 1.379,0.22 2.175,1.025 3.84,0.96 -0.129,-0.849 0.203,-1.237 0.72,-1.44 0.054,0.425 -0.242,1.202 0.48,0.96 z m 8.64,-3.6 c 0.16,0 0.32,0 0.48,0 0,-0.16 0,-0.32 0,-0.48 -0.16,0 -0.32,0 -0.48,0 0,0.16 0,0.32 0,0.48 z m -25.68,0.72 c 0.278,0.948 0.278,-0.949 0,0 l 0,0 z m 57.6,0 c 0.157,0.157 -0.101,-0.101 0,0 l 0,0 z m -51.6,1.68 c -0.866,0.483 -1.162,-0.024 -1.92,-0.24 -2.346,3.894 -5.017,7.463 -6,12.72 -3.044,2.336 -0.692,7.341 0,9.84 0.841,-1.214 0.763,-2.71 1.68,-3.36 1.641,-6.654 6.126,-11.907 9.12,-17.52 -1.216,-0.741 -2.341,-0.083 -2.88,-1.44 z m -70.32,0.24 c 0.157,0.157 -0.101,-0.101 0,0 l 0,0 z m 104.88,0.24 c 0.278,0.948 0.278,-0.948 0,0 l 0,0 z m -29.04,0.24 c 0.157,0.157 -0.101,-0.101 0,0 l 0,0 z m 22.32,0.48 c -0.471,2.128 -4.585,0.394 -6,1.92 -1.55,-1.939 -3.517,0.4 -3.6,2.16 0.728,0.313 1.384,0.696 2.16,0.96 0.314,-1.285 1.525,-1.675 1.92,-2.88 1.004,0.504 2.529,-0.277 3.36,-0.72 2.485,0.93 5.884,3.28 5.28,6.96 -0.166,1.014 -0.687,1.813 -1.44,2.64 -0.748,0.224 -1.676,0.925 -2.64,1.2 -0.568,0.162 -1.086,-0.104 -1.68,0 -0.807,0.141 -1.219,0.741 -1.92,0.72 -2.557,-0.076 -3.279,-3.334 -4.56,-5.04 1.135,0.095 1.584,-0.496 1.92,-1.2 -1.083,-0.277 -1.84,-0.88 -2.64,-1.44 -1.257,1.034 -0.791,2.851 -1.2,4.32 -0.079,0.283 -0.615,0.667 -0.72,0.96 -0.567,1.578 -0.914,3.039 -1.2,4.32 -0.299,1.343 -0.093,2.894 -0.48,4.32 -1.048,3.863 -1.607,8.998 -0.48,12.48 5.422,-0.827 11.894,-2.01 17.04,-3.84 0.086,-1.674 -0.117,-3.857 0,-4.56 0.103,-0.616 0.492,-0.962 0.48,-1.2 -0.007,-0.156 -0.518,-0.25 -0.48,-0.72 0.027,-0.342 0.433,-0.898 0.48,-1.2 0.16,-1.02 -0.1,-2.097 0,-3.12 0.414,-4.251 1.562,-8.552 1.92,-13.2 1.1,-1.124 0.994,-2.014 1.2,-4.08 -1.934,-0.673 -4.449,1.249 -6.72,0.24 z m -23.04,0.48 c -3.207,5.033 -7.014,9.466 -8.88,15.84 -0.33,-0.01 -0.527,0.113 -0.72,0.24 -0.093,0.867 -0.319,1.602 -0.72,2.16 -0.307,-0.013 -0.332,-0.308 -0.72,-0.24 0.992,1.592 -0.458,2.231 -0.72,3.84 1.487,1.953 2.65,4.229 5.04,5.28 0.608,-2.299 0.441,-6.266 1.92,-8.88 0.159,-4.962 3.398,-8.921 5.04,-13.2 0.844,-0.276 0.879,-1.361 1.68,-1.68 -0.278,-1.269 1.616,-1.27 0.96,-2.16 -0.912,-0.449 -1.703,-1.017 -2.88,-1.2 z m -82.56,0.72 c -0.27,0.024 -0.374,-0.349 -0.48,0 0.002,0.242 0.42,0.302 0.48,0 z m 176.879,0.24 c 0.158,0.157 -0.1,-0.101 0,0 l 0,0 z m -90.959,1.68 c -0.16,0 -0.32,0 -0.48,0 0.5,1.508 -1.152,0.967 -0.96,2.88 -0.193,-0.127 -0.39,-0.25 -0.72,-0.24 0,0.48 0,0.96 0,1.44 -0.927,1.153 -1.558,2.603 -1.92,4.32 -1.805,0.849 -1.599,4.233 -2.64,6.48 -0.036,0.078 -0.465,0.187 -0.48,0.24 -0.862,3.104 -0.906,6.152 -1.68,10.32 1.384,1.656 4.333,1.748 6.24,2.88 -0.499,0.134 -0.508,0.374 -0.24,0.72 -0.591,0.471 -1.243,-0.535 -1.68,-0.96 -1.455,1.538 -2.875,-1.413 -4.08,-0.96 -0.649,4.362 -0.316,7.779 0.24,12.24 1.905,-0.496 2.755,-2.045 4.32,-2.88 -0.197,-0.763 -0.7,-1.22 -1.2,-1.68 0.668,-1.492 1.066,-3.255 2.16,-4.32 0.691,-0.349 1.731,-0.348 1.68,-1.44 -0.355,-0.424 -1.241,0.451 -1.2,-0.72 1.927,-0.127 3.18,0.349 6,0.24 -0.328,-9.797 2.072,-17.657 4.32,-26.88 -2.714,-0.127 -5.502,-3.338 -7.68,-1.68 z m 56.16,1.2 c 0.229,0.73 0.955,0.965 0.721,2.16 -3.192,-0.548 -8.611,-0.981 -11.761,0.48 -1.028,0.477 -2.172,1.701 -3.359,2.64 -3.229,2.553 -4.92,4.479 -6.721,8.88 -0.662,1.62 -1.29,3.716 -1.199,4.56 0.066,0.628 0.479,1.126 0.72,1.68 -0.172,1.251 -0.104,3.118 0.479,4.32 0.083,0.17 0.783,0.204 0.961,0.48 0.191,0.3 0.09,0.743 0.239,0.96 0.882,1.275 2.118,2.857 3.36,3.84 0.772,0.053 1.016,-0.425 1.92,-0.24 0.25,0.98 0.466,1.46 0.479,2.16 3.714,2.551 8.342,5.136 14.16,4.32 2.366,-0.332 5.823,-1.788 7.92,-3.36 0.678,-0.507 1.23,-1.532 1.92,-2.16 1.588,-1.445 1.828,-1.532 3.12,-3.6 2.571,-4.114 2.452,-10.469 1.92,-15.12 -2.195,-3.404 -4.771,-6.429 -7.68,-9.12 -2.285,-1.074 -4.393,-2.326 -7.199,-2.88 0.229,-0.997 -0.719,-0.048 0,0 z m -41.28,1.44 c 1.498,0.582 2.695,1.465 3.84,2.4 0.257,0.896 -0.596,0.684 -0.48,1.44 0.418,-0.018 0.747,0.054 0.96,0.24 2.265,-1.176 0.774,-5.677 -1.68,-4.8 -0.432,-1.536 -2.48,-0.217 -2.64,0.72 z m 27.36,-0.48 c -1.706,-0.102 -3.186,1.289 -2.88,2.4 0.597,-1.163 2.038,-1.482 2.88,-2.4 0.348,-0.148 -0.025,-0.29 0,0 z m -28.08,3.12 c 0.04,0.68 0.439,1 0.48,1.68 1.416,0.442 2.414,0.487 3.36,-0.48 -2.024,0.452 -2.119,-2.131 -3.84,-1.2 z m 23.28,0.72 c 0.157,0.157 -0.101,-0.101 0,0 l 0,0 z m -12.72,2.64 c -0.58,0.805 0.805,-0.58 0,0 l 0,0 z M 97.97,96.24 c 0.931,0.603 2.088,-0.501 2.16,0.96 0.82,-3.18 1.713,-6.287 2.4,-9.6 -1.107,-0.973 -1.022,-3.138 -2.16,-4.08 -1.669,3.686 -1.433,8.876 -2.4,12.72 z m 5.52,-6.48 c -0.652,1.641 -0.613,2.523 -1.68,3.6 0.344,0.296 0.455,0.825 0.48,1.44 -0.633,-0.073 -0.619,0.501 -0.72,0.96 -0.431,5.309 -2.437,10.777 0.24,14.16 0,0.56 0,1.12 0,1.68 2.499,1.865 3.647,-0.62 5.76,-2.16 0.898,-0.655 1.77,-0.608 2.16,-1.44 -1.064,-3.564 -0.72,-9.702 -0.72,-13.2 -1.906,-1.614 -3.662,-3.379 -5.52,-5.04 -0.148,-0.349 -0.29,0.024 0,0 z m 39.6,3.6 c -0.239,6.38 0.361,11.312 1.2,18 2.485,-0.707 4.874,-1.472 7.44,-2.64 -1.16,-2.124 -2.174,-4.633 -1.2,-6.72 0.207,-0.442 0.659,-0.584 0.72,-1.2 0.284,-2.877 -1.93,-5.597 -1.68,-9.12 -2.571,0.149 -4.183,1.257 -6.48,1.68 z m -5.76,1.92 c -1.604,-0.532 -2.273,0.924 -4.08,0.24 -0.571,0.562 -2.637,1.327 -3.12,0.48 -1.316,1.612 -3.64,0.744 -5.52,1.68 -0.624,1.658 0.701,3.147 0.96,4.8 0.168,1.073 -0.169,2.32 0,3.36 0.108,0.667 0.678,1.304 0.96,2.16 0.485,1.471 0.743,3.163 1.2,3.84 0.598,0.887 0.371,1.518 0.72,1.92 0.51,0.588 0.693,1.362 0.96,1.92 1.948,-0.177 4.318,-1.797 5.76,-0.96 -0.204,-1.163 1.284,-0.635 1.92,-0.96 1.211,-2.347 3.099,-3.203 6.48,-2.4 -1.434,-6.829 -1.31,-11.666 -1.92,-17.52 -1.554,0.366 -3.064,0.777 -4.32,1.44 z m -68.4,8.4 c 0.106,-0.213 0.211,-0.429 0.48,-0.48 -0.336,-1.023 -0.688,-2.032 -0.96,-3.12 1.478,0.038 1.417,-1.462 2.88,-1.44 0.334,-0.306 0.104,-1.175 0.72,-1.2 -0.124,0.61 -0.409,0.931 0.48,0.96 -0.173,-0.733 0.245,-0.875 0.24,-1.44 -0.637,-0.968 -2.352,-3.018 -3.36,-1.44 -0.011,0.407 0.375,0.596 0.48,1.44 -2.086,0.108 -2.958,3.055 -2.16,4.56 -0.318,0.401 -0.636,0.804 -0.48,1.68 -0.755,-0.12 -0.938,0.523 -1.44,0 -0.252,1.838 3.917,3.061 3.84,0.48 -0.24,0 -0.48,0 -0.72,0 z m 52.32,-6.24 c -0.97,-0.844 -0.566,0.772 0,0 l 0,0 z m -23.28,11.04 c 1.566,-1.231 0.53,-3.528 0.48,-5.28 -0.058,-2.039 0.654,-4.264 -0.48,-5.76 0.329,3.322 -0.1,7.725 0,11.04 z m 20.64,-10.8 c 0.278,0.948 0.278,-0.949 0,0 l 0,0 z m 0.48,5.04 c 1.796,-0.105 0.597,1.864 0.48,2.64 0.685,0.301 1.374,0.188 1.2,-0.96 1.003,0.204 0.95,-0.65 1.44,-0.96 0.173,-1.934 -1.085,-2.435 -2.64,-2.64 -0.014,0.786 -0.683,0.917 -0.48,1.92 z m 88.32,0.96 c 0.328,-1.018 2.606,-1.143 3.601,-0.72 0.076,-0.563 0.379,-0.901 0.239,-1.68 -1.9,-0.825 -4.529,0.666 -3.84,2.4 z m -89.76,-0.48 c 0.388,-0.332 0.298,-1.142 1.2,-0.96 -0.045,-0.675 -0.417,-1.022 -1.2,-0.96 -0.053,0.449 -0.619,1.59 0,1.92 z m -46.32,-0.24 c 0.157,0.157 -0.101,-0.101 0,0 l 0,0 z m 89.28,1.92 c -0.554,-0.247 -0.774,-0.826 -1.68,-0.72 0.064,1.111 1.373,1.269 1.68,0.72 z m 44.64,3.36 c 1.148,0.505 2.537,-0.603 3.84,-0.72 -0.177,-1.264 -0.117,-1.765 -0.479,-3.12 -0.673,0.276 -1.248,0.276 -1.92,0 -0.261,0.847 -1.156,2.311 -1.441,3.84 z m 87.839,-3.36 c -0.06,1.763 -1.883,0.508 -2.64,0.24 -2.027,1.092 -2.939,3.301 -4.08,5.28 0.265,0.776 0.647,1.432 0.96,2.16 -1.115,0.602 -1.593,0.567 -2.64,0.96 -0.686,3.203 1.154,7.29 2.88,9.6 2.318,-0.024 4.074,-0.322 6,-1.2 1.582,-2.01 3.911,-5.158 5.04,-8.16 1.011,-2.688 -0.313,-6.008 -1.68,-8.4 -1.513,0.143 -2.015,-0.505 -3.84,-0.48 z m -139.439,0.48 c -0.308,-0.013 -0.333,-0.308 -0.72,-0.24 -0.373,0.59 0.815,0.706 0.72,0.24 z m 7.92,0 c -0.187,0.054 -0.474,0.006 -0.48,0.24 0.186,-0.054 0.473,-0.007 0.48,-0.24 z m 0.24,1.2 c 0.307,0.333 1.133,0.146 1.439,0.48 0.42,-1.123 -1.344,-1.288 -1.439,-0.48 z m -36,10.08 c 0.977,-0.063 1.629,-0.451 2.4,-0.72 0.005,-1.053 -0.953,-1.286 -0.48,-2.16 -1.244,-1.024 -2.405,-4.031 -2.64,-6.48 -0.462,-0.098 -0.189,-0.93 -0.96,-0.72 -0.034,4.127 0.262,6.646 1.68,10.08 z m 102.48,-9.6 c -0.578,-0.099 -0.521,0.438 -1.2,0.24 -0.026,-0.293 -0.071,-0.568 -0.479,-0.48 -0.384,0.882 1.825,1.121 1.679,0.24 z m 0.24,0.72 c 0.94,-0.259 2.956,0.556 3.12,-0.48 -0.851,-0.326 -3.098,-1.07 -3.12,0.48 z m -64.08,-0.24 c 0.157,0.157 -0.101,-0.101 0,0 l 0,0 z m 70.32,0.48 c -0.033,-1.007 -1.921,-0.159 -2.4,-0.72 0.387,1.343 1.296,0.223 2.4,0.72 z m -115.2,1.44 c -1.622,-0.606 -2.511,-0.545 -3.6,-1.92 -2,0.48 -2.826,2.134 -4.56,2.88 0.145,2.895 0.86,5.22 1.68,7.44 4.686,0.335 7.013,0.196 11.52,-0.96 -0.518,-2.442 -1.491,-4.429 -1.44,-7.44 -0.801,-0.514 -3.043,-1.37 -3.6,0 z m 106.559,-1.68 c 0.158,0.157 -0.1,-0.101 0,0 l 0,0 z m 15.121,0.48 c 0.721,0 1.44,0 2.16,0 -0.112,-1.16 -2.032,-0.284 -2.16,0 z M 238.37,108 c 0,0.08 0,0.16 0,0.24 0.411,0.011 0.622,-0.178 0.72,-0.48 -0.387,-0.068 -0.414,0.227 -0.72,0.24 -0.284,-0.729 -1.273,0.26 0,0 z m 2.4,0 c -0.428,0.143 -0.997,-0.704 -1.2,0 0.145,0.138 1.138,0.562 1.2,0 z m 3.359,0.48 c 0.16,0 0.32,0 0.48,0 0,-0.16 0,-0.32 0,-0.48 -0.16,0 -0.32,0 -0.48,0 0,0.16 0,0.32 0,0.48 z m 3.121,0 c 0.278,0.948 0.278,-0.948 0,0 l 0,0 z m 1.2,0.24 c 0.24,0 0.48,0 0.72,0 0.031,-0.431 -0.238,-0.562 -0.72,-0.48 0,0.16 0,0.32 0,0.48 z m 9.36,-0.48 c -0.187,0.054 -0.474,0.007 -0.48,0.24 0.186,-0.054 0.473,-0.007 0.48,-0.24 z m 0.48,0.48 c 0.651,-0.148 1.905,0.305 2.16,-0.24 -1.016,0.004 -1.542,-0.457 -2.16,0.24 z m -14.88,0 c 0.157,0.157 -0.101,-0.101 0,0 l 0,0 z m -144.96,0.72 c 0.065,-0.327 -0.148,-0.937 -0.24,-0.48 -0.065,0.327 0.148,0.936 0.24,0.48 z m 1.2,5.28 c 1.206,-0.074 1.677,-0.883 2.4,-1.44 -0.692,-0.912 -1.487,-2.987 -2.4,-2.88 0.218,1.104 -0.42,3.049 0,4.32 z m 169.2,-4.32 c -0.283,0.038 -0.682,-0.042 -0.721,0.24 0.284,-0.038 0.682,0.041 0.721,-0.24 z m 1.92,0.24 c -0.27,0.024 -0.374,-0.349 -0.48,0 0.002,0.242 0.42,0.302 0.48,0 z m 0.72,0 c -0.003,-0.242 -0.421,-0.302 -0.479,0 0.049,0.29 0.265,0.148 0.479,0 z m 0,0.48 c 0.428,-0.132 0.997,-0.123 1.2,-0.48 -0.596,-0.036 -1.165,-0.045 -1.2,0.48 z m 8.639,0.24 c 0.158,0.157 -0.1,-0.101 0,0 l 0,0 z m -174.719,3.12 c 1.781,1.117 3.897,3.118 6.24,2.88 -0.967,-1.898 -0.955,-4.099 -1.44,-6 -1.77,0.87 -3.188,2.093 -4.8,3.12 z m 173.759,-2.64 c 0.413,0.013 0.615,-0.185 0.721,-0.48 -0.413,-0.013 -0.615,0.184 -0.721,0.48 z m 0.96,0 c 0.279,0.948 0.279,-0.948 0,0 l 0,0 z m -94.559,1.68 c 1.449,-0.009 1.07,1.81 2.4,1.92 0.011,-1.277 -1.353,-3.243 -2.4,-1.92 z m -46.56,4.32 c 1.348,-0.172 1.323,-1.717 2.16,-2.4 0.433,-0.527 1.733,-0.187 1.68,-1.2 -2.422,-0.771 -4.752,1.68 -3.84,3.6 z m 4.08,-2.88 c 0.425,-0.055 1.202,0.242 0.96,-0.48 -0.32,0 -0.64,0 -0.96,0 0,0.16 0,0.32 0,0.48 z m -13.2,1.92 c 0.756,0.278 0.625,1.182 0.96,1.68 1.844,2.74 4.472,4.722 6,7.68 0.865,-0.435 0.708,0.042 1.44,0.24 0.123,-0.776 1.285,-1.633 0.24,-2.16 0.726,-0.154 1.385,-0.375 1.44,-1.2 -0.711,-2.103 -3.746,-3.64 -4.08,-6 -0.128,-0.904 0.716,-1.887 0,-2.4 -1.714,1.522 -4.652,0.436 -6,2.16 z m -11.28,14.4 c 0.972,0.565 0.715,1.555 1.2,2.16 0.322,0.402 1.682,0.054 1.2,1.2 4.741,-0.742 7.081,-0.668 11.28,0.24 -0.13,-0.85 0.85,-0.59 0.72,-1.44 -3.604,-4.317 -6.286,-9.554 -8.16,-15.6 -0.823,0.232 -1.55,0.113 -2.16,0 0.021,0.34 0.04,0.68 -0.24,0.72 -3.206,-0.514 -6.334,1.554 -8.64,0.24 -0.274,2.774 1.274,5.752 2.64,7.68 -0.526,1.026 1.069,1.738 1.44,2.64 -0.435,1.36 1.212,1.493 0.72,2.16 -0.24,0 -0.48,0 -0.72,0 -0.754,-1.839 -2.589,-3.493 -2.4,-5.52 -2.059,-1.301 -2.013,-4.708 -3.36,-6.72 -2.456,-1.162 -5.688,-1.471 -7.68,-3.6 -1.459,0.926 -2.318,1.011 -3.84,1.92 1.027,6.858 4.678,9.755 6.48,15.6 1.142,0.059 0.559,1.841 1.68,1.92 -1.256,-3.552 -3.897,-7.552 -3.6,-12.24 0.479,0.792 0.378,0.052 1.2,0 0.402,4.451 2.397,8.812 4.32,12.48 2.414,-0.373 5.814,-0.848 9.12,-0.48 -0.095,-1.531 -1.816,-1.802 -1.2,-3.36 z m 7.68,-13.44 c -0.09,2.054 0.688,2.878 1.2,4.08 0.768,1.804 1.16,2.547 1.92,3.84 1.267,2.153 2.443,4.326 3.6,5.76 0.321,0.397 0.005,1.087 0.72,0.96 0.405,-0.643 0.975,-1.264 0.48,-2.16 0.307,0.013 0.332,0.308 0.72,0.24 0.3,-1.621 2.126,-1.714 2.4,-3.36 -3.249,-2.911 -6.086,-6.233 -8.4,-10.08 -1.346,-0.226 -1.754,0.486 -2.64,0.72 z m 19.44,1.44 c 0.443,-0.471 -0.211,-1.199 -0.72,-1.44 -0.59,0.618 0.257,1.153 0.72,1.44 z m -3.12,0.72 c 0.549,0.048 1.556,-1.392 0.48,-1.44 0.062,0.702 -0.543,0.737 -0.48,1.44 z m -42.72,8.16 c 0.731,-0.09 0.408,0.873 0.96,0.96 0.221,3.141 3.208,5.592 5.52,7.44 0.71,-0.885 -0.765,-1.189 -0.96,-1.92 -2.155,-3.968 -3.672,-7.983 -5.76,-11.52 -0.258,2.496 0.541,3.398 0.24,5.04 z m 41.76,1.2 c 1.602,1.438 4.209,1.87 5.52,3.6 0.849,-0.346 1.668,0.492 2.16,1.2 0.882,-0.496 1.328,0.064 2.16,0.24 1.107,-1.053 2.869,-1.451 4.08,-2.4 -2.388,-2.732 -5.214,-5.026 -7.2,-8.16 -1.369,0.713 -2.229,-0.47 -3.84,-0.24 1.199,2.592 -1.632,4.146 -2.88,5.76 z m -0.48,0.48 c -0.499,0.622 -1.65,0.59 -1.44,1.92 -1.879,0.361 -1.489,2.991 -2.88,3.84 0.976,1.745 2.484,2.956 4.32,3.84 3.296,-1.859 6.353,-2.472 9.12,-4.8 -3.503,-1.122 -6.176,-2.681 -9.12,-4.8 z m -4.32,7.92 c 0.148,0.349 0.29,-0.025 0,0 -0.148,-0.349 -0.29,0.024 0,0 z m 1.44,0.48 c 0.148,0.348 0.29,-0.025 0,0 0,-0.08 0,-0.16 0,-0.24 -0.43,0.03 -0.506,-0.294 -0.96,-0.24 -0.113,0.747 0.603,0.858 0.96,0.48 z m 0.48,0.48 c 0.157,0.157 -0.101,-0.101 0,0 l 0,0 z m -22.56,1.44 c -1.46,2.012 -4.065,2.783 -5.76,4.32 -2.276,2.064 -3.324,5.25 -5.76,7.2 0.128,0.928 -0.429,1.171 -0.24,2.159 -1.368,1.174 -1.327,2.348 -1.68,3.841 -0.017,0.07 -0.465,0.366 -0.48,0.479 -0.038,0.286 0.378,0.36 0.24,0.72 -0.287,0.747 -0.867,1.044 -0.96,1.681 -0.714,4.875 2.142,8.084 4.56,10.08 0.891,0.735 1.8,1.956 2.64,2.399 1.208,0.639 2.05,0.429 3.36,0.721 1.167,0.26 2.423,1.046 3.36,1.199 0.446,0.073 0.87,-0.294 1.44,-0.239 0.424,0.04 0.865,0.46 1.2,0.479 3.194,0.186 6.431,-0.197 8.88,-1.68 2.369,0.288 5.762,-1.488 6,-3.36 0.346,0.709 0.966,-0.286 0.72,-0.96 1.66,-0.203 2.778,-2.484 3.36,-3.6 0.646,-1.237 1.101,-1.988 1.92,-3.12 1.04,-1.438 2.022,-2.765 3.12,-3.84 0.239,-1.533 1.1,-3.496 0.96,-4.561 -0.458,-3.476 -1.94,-7.844 -4.08,-10.08 -1.384,-1.446 -3.512,-1.552 -4.8,-3.12 -5.873,-0.65 -12.68,-2.996 -18,-0.718 z m 130.32,6.96 c -0.116,2.036 1.54,2.3 1.68,4.08 4.94,1.223 9.833,-3.348 6.24,-7.2 -1.572,-0.575 -2.644,0.434 -3.36,0.721 0.004,-0.478 0.655,-0.306 0.48,-0.96 -2.379,-0.224 -3.547,1.99 -5.04,3.359 z M 47.57,147.6 c 0.157,0.157 -0.101,-0.1 0,0 l 0,0 z m 50.16,8.4 c 0.463,-3.138 2.602,-5.877 2.88,-8.399 -1.465,2.033 -3.854,5.505 -2.88,8.399 z m 77.28,-6.72 c 0.18,0.78 0.434,1.485 0.72,2.16 1.16,0.017 0.854,-1.806 1.92,-1.2 -0.011,-0.33 0.113,-0.527 0.24,-0.72 -0.813,-0.801 -1.793,-0.697 -2.88,-0.24 z m -1.2,0.24 c 0.157,0.157 -0.101,-0.101 0,0 l 0,0 z m -144.48,5.279 c -0.856,-2.343 -2.634,-3.766 -4.32,-5.279 -2.832,-0.238 -4.609,1.473 -6.72,1.2 -6.288,5.07 -11.514,11.941 -11.28,22.8 0.468,0.913 2.336,2.371 1.2,3.359 0.624,-0.144 0.863,0.097 0.72,0.721 1.472,0.079 2.293,1.187 3.36,1.68 0.329,0.151 0.853,-0.108 1.2,0 0.395,0.123 0.832,0.816 1.2,0.96 0.204,0.079 0.477,-0.24 0.48,-0.24 0.3,0.043 0.106,0.431 0.24,0.48 3.029,1.119 6.614,1.49 9.36,0.479 1.738,-0.64 3.52,-2.017 4.56,-2.88 0.493,-0.409 1.112,-0.634 1.44,-0.96 0.45,-0.448 0.545,-1.198 0.96,-1.68 0.37,-0.43 1.059,-0.495 1.44,-0.96 0.621,-0.758 1.206,-2.514 1.44,-3.12 1.413,-3.665 1.148,-6.943 0.96,-10.561 -1.176,-0.739 -1.292,-2.724 -1.92,-3.359 -1.206,0.635 -1.692,1.987 -3.6,1.92 -0.001,0.969 -1.344,1.844 -1.68,1.68 0.054,-0.453 -0.271,-0.529 -0.24,-0.96 0.787,-0.413 1.411,-0.989 1.68,-1.92 -1.032,-1.118 -0.343,-2.142 -0.48,-3.36 z m 1.44,-2.639 c 0.998,-1.048 -0.998,-2.261 -2.16,-2.64 0.639,0.96 1.217,1.982 2.16,2.64 z m 0.72,1.2 c 0.074,1.623 1.189,2.022 0.24,3.6 1.224,0.265 1.012,-0.907 1.92,-0.96 0.067,-1.667 -0.458,-2.742 -1.68,-3.12 0.088,0.408 -0.187,0.453 -0.48,0.48 0.067,-0.627 0.081,-1.201 -0.72,-0.96 0.101,0.459 0.087,1.033 0.72,0.96 z m 9.36,-0.72 c 0.157,0.157 -0.101,-0.1 0,0 l 0,0 z m -1.92,1.199 c 0.459,-0.101 1.033,-0.087 0.96,-0.72 -0.769,-0.208 -0.751,0.37 -0.96,0.72 z M 8.21,154.32 c 0.278,0.948 0.278,-0.948 0,0 l 0,0 z m -2.88,2.4 c -0.652,1.69 -1.414,3.377 -1.68,5.76 -0.125,1.12 -0.678,2.384 -0.72,3.359 -0.028,0.646 -0.397,1.771 0.48,2.16 -0.261,-1.569 0.413,-2.456 0.72,-3.12 0.79,-1.708 1.152,-3.709 1.92,-5.52 0.579,-1.365 1.548,-2.297 1.92,-3.6 0.013,-0.413 -0.185,-0.616 -0.48,-0.721 -0.763,0.519 -1.073,1.49 -2.16,1.682 z m -1.2,14.64 c -0.164,-0.964 -0.327,-3.184 -1.2,-2.64 0.145,0.455 0.1,2.422 1.2,2.64 z M 110.21,180 c 0.026,-0.344 1.054,-1.251 0,-1.2 0.143,0.427 -0.704,0.996 0,1.2 z m -1.92,4.32 c 0.213,-0.949 0.132,-1.421 0.24,-1.68 0.233,-0.562 1.712,-1.521 0.72,-1.92 -0.538,0.747 -3.277,3.027 -0.96,3.6 z m 118.08,10.32 c 3.025,0.015 4.607,1.472 6.48,2.64 -0.879,-2.642 -3.411,-3.629 -7.2,-3.36 -0.044,0.524 0.196,0.763 0.72,0.72 z m -127.2,1.44 c 0.157,0.157 -0.101,-0.101 0,0 l 0,0 z m 92.64,2.64 c 0.743,0.057 0.932,0.667 1.439,0.96 -1.382,0.808 -1.744,3.815 -4.08,2.88 -0.186,1.361 -2.113,1.107 -2.88,0.479 -0.096,-1.034 -0.753,-2.064 -1.439,-3.12 0.423,-0.937 1.353,-1.367 1.68,-2.399 -3.45,1.402 -2.642,6.016 0,6.96 0.404,0.145 0.561,-0.296 0.96,-0.24 0.319,0.044 0.572,0.458 0.96,0.48 1.454,0.084 2.57,-1.052 3.36,-1.44 0.539,-0.266 1.307,-0.255 1.68,-0.479 2.471,-1.489 2.396,-2.731 2.88,-4.32 -0.923,-1.651 -4.252,-2.445 -4.56,0.239 z m 38.16,0.48 c -0.716,-0.166 -1.302,-1.153 -2.4,-1.439 -1.234,-0.322 -3.191,-0.301 -3.84,0.479 2.823,0.078 4.791,0.392 6.479,2.4 0.174,-0.733 -0.245,-0.875 -0.239,-1.44 z M 27.65,198 c -0.003,-0.242 -0.421,-0.302 -0.48,0 0.051,0.29 0.266,0.148 0.48,0 z m -0.72,0.24 c -0.002,-0.242 -0.42,-0.302 -0.48,0 0.269,-0.025 0.373,0.348 0.48,0 z m 206.64,0.48 c 0,-0.24 0,-0.48 0,-0.721 -0.24,0 -0.48,0 -0.72,0 -0.044,0.524 0.196,0.764 0.72,0.721 z m -204,1.199 c 0.305,-0.808 -1.217,-0.992 -1.44,-0.479 0.448,0.191 0.879,0.4 1.44,0.479 z m 159.36,-0.479 c 0.023,1.041 1.607,0.808 1.68,0 -0.533,-0.556 -0.936,0.081 -1.68,0 z m 44.64,-0.24 c -0.187,0.054 -0.474,0.007 -0.48,0.24 0.186,-0.054 0.473,-0.007 0.48,-0.24 z m -9.6,3.12 c -0.284,-0.276 -0.849,-0.271 -1.44,-0.24 -0.248,1.272 -1.484,1.556 -1.44,3.12 -0.82,0.021 -0.139,-1.461 -0.96,-1.439 -0.026,0.292 -0.071,0.568 -0.479,0.479 0.538,1.063 1.695,1.504 2.399,2.4 1.196,-0.391 2.35,1.326 4.08,1.199 3.188,-1.461 2.478,-8.014 -1.92,-6.96 -0.277,0.285 -0.272,0.849 -0.24,1.441 z M 16.85,201.839 c 0.157,0.158 -0.101,-0.1 0,0 l 0,0 z m 1.44,0.241 c 0.4,0 0.8,0 1.2,0 0,-0.16 0,-0.319 0,-0.479 -0.454,0.106 -1.447,-0.328 -1.2,0.479 z m 63.6,22.08 c 0.16,0 0.32,0 0.48,0 0.014,0.146 0.036,0.284 0.24,0.24 0.268,-1.098 1.592,-2.4 1.2,-3.36 -0.486,1.194 -1.552,1.808 -1.92,3.12 z m -3.36,5.759 c 2.065,0.329 1.71,-1.527 1.68,-2.159 0.317,0.002 0.219,0.42 0.48,0.479 0.776,-0.903 1.144,-2.216 1.68,-3.36 -2.282,-0.255 -2.432,3.63 -3.84,5.04 z m -53.76,1.441 c -0.187,0.054 -0.474,0.007 -0.48,0.24 0.186,-0.054 0.473,-0.007 0.48,-0.24 z m 50.4,0.96 c 0.157,0.157 -0.101,-0.101 0,0 l 0,0 z m -3.84,1.2 c -1.166,-1.964 -4.614,0.377 -6.24,0.96 -0.6,2.173 -1.538,4.287 -1.92,6.24 -0.083,0.424 0.28,0.76 0.24,1.199 -0.046,0.511 -0.446,0.678 -0.48,1.2 -0.106,1.627 0.754,2.417 1.2,3.12 1.354,2.137 3.825,5.561 6.48,6.48 0.464,0.16 1.378,0.198 1.92,0.239 1.001,0.077 0.959,-0.281 1.44,-0.239 0.081,0.007 0.043,0.463 0.48,0.479 1.997,0.077 4.226,-0.135 5.52,-1.2 0.111,-0.091 -0.079,-0.592 0,-0.72 0.068,-0.111 0.616,-0.11 0.72,-0.24 0.816,-1.012 1.181,-2.018 2.64,-2.399 -0.012,0.731 0.218,1.222 0.72,1.439 3.713,-5.373 0.167,-12.771 -3.6,-15.6 -1.019,0.295 -1.292,0.088 -2.4,0 -0.274,-0.767 -0.047,-2.032 -1.44,-1.681 -0.115,0.812 -1.342,1.363 -0.72,2.16 -1.551,-0.111 -0.993,1.887 -2.16,2.16 -0.153,-0.872 -1.122,0.557 -1.2,-0.24 0.444,-0.462 0.439,-0.189 0.24,-0.96 0.164,-0.476 1.43,0.15 1.2,-0.72 -0.627,-0.253 -0.454,-1.307 -0.72,-1.92 -0.825,-0.103 -1.345,0.098 -1.92,0.243 z"
           id="path238" />
        <path
           style="fill:#212721;fill-rule:evenodd"
           inkscape:connector-curvature="0"
           transform="translate(0,5.053983e-6)"
           clip-rule="evenodd"
           d="m 164.93,2.4 c -0.223,1.146 1.456,1.128 2.159,2.16 0.914,1.339 0.54,3.152 1.2,4.32 -0.905,2.534 -2.449,4.43 -3.84,6.48 -1.358,0.322 -2.629,0.731 -3.12,1.92 -0.477,-0.003 -0.305,-0.655 -0.96,-0.48 -2.147,0.966 -3.656,0.305 -6.24,0.24 -3.23,-1.583 -5.526,-5.293 -4.08,-9.36 0.079,-0.221 0.798,-0.701 0.96,-0.96 0.288,-0.458 0.632,-1.854 0.96,-2.16 1.298,-1.209 4.522,-1.35 6,-2.4 2.081,0.425 5.173,-0.207 6.24,0.72 0.245,-0.156 0.249,-0.552 0.721,-0.48 z m -2.64,3.12 c -1.694,-0.952 -3.842,-0.253 -5.039,0 -0.354,0.074 -0.865,-0.276 -0.961,-0.24 -3.63,1.373 -4.166,5.554 -1.92,8.4 0.758,-0.117 0.848,0.433 1.68,0.24 0.1,-1.139 -0.818,-1.261 -0.72,-2.4 0.21,-0.478 0.292,-0.761 0.72,-0.96 1.261,-0.585 2.838,0.559 3.601,1.44 0.821,0.101 0.721,-0.719 1.2,-0.96 0,0.24 0,0.48 0,0.72 2.78,-0.814 3.838,-4.893 1.439,-6.24 z"
           id="path240" />
        <path
           style="fill:#212721;fill-rule:evenodd"
           inkscape:connector-curvature="0"
           id="path242"
           d="m 160.61,17.76 c 0.278,-0.948 0.278,0.948 0,0 l 0,0 z"
           clip-rule="evenodd" />
        <path
           style="fill:#212721;fill-rule:evenodd"
           inkscape:connector-curvature="0"
           id="path244"
           d="m 160.85,18.48 c 0.411,-0.774 0.65,0.601 0.72,0.96 -0.945,0.384 -0.084,-1.037 -0.72,-0.96 z"
           clip-rule="evenodd" />
        <path
           style="fill:#212721;fill-rule:evenodd"
           inkscape:connector-curvature="0"
           id="path246"
           d="m 161.089,20.16 c -0.1,-0.101 0.158,0.157 0,0 l 0,0 z"
           clip-rule="evenodd" />
        <path
           style="fill:#212721;fill-rule:evenodd"
           inkscape:connector-curvature="0"
           id="path248"
           d="m 160.85,21.12 c 0.277,-0.949 0.277,0.948 0,0 l 0,0 z"
           clip-rule="evenodd" />
        <path
           style="fill:#212721;fill-rule:evenodd"
           inkscape:connector-curvature="0"
           id="path250"
           d="m 161.33,21.12 c 0.7,-0.353 0.7,1.073 0,0.72 0,-0.24 0,-0.48 0,-0.72 z"
           clip-rule="evenodd" />
        <path
           style="fill:#212721;fill-rule:evenodd"
           inkscape:connector-curvature="0"
           id="path252"
           d="m 160.61,22.32 c 0.463,0.578 1.79,0.29 1.439,1.68 -1.194,0.314 -1.021,-0.739 -1.92,-0.72 0.004,-0.477 0.656,-0.305 0.481,-0.96 z"
           clip-rule="evenodd" />
        <path
           style="fill:#212721;fill-rule:evenodd"
           inkscape:connector-curvature="0"
           id="path254"
           d="m 160.85,24.72 c 0.006,-0.233 0.293,-0.186 0.479,-0.24 -0.006,0.233 -0.293,0.186 -0.479,0.24 z"
           clip-rule="evenodd" />
        <path
           style="fill:#212721;fill-rule:evenodd"
           inkscape:connector-curvature="0"
           id="path256"
           d="m 176.45,41.52 c 0.278,-0.948 0.278,0.948 0,0 l 0,0 z"
           clip-rule="evenodd" />
        <path
           style="fill:#212721;fill-rule:evenodd"
           inkscape:connector-curvature="0"
           id="path258"
           d="m 157.25,47.52 c -0.119,0.682 -1.256,0.345 -0.961,1.44 -0.654,0.175 -0.482,-0.477 -0.96,-0.48 0.427,-0.533 1.072,-0.849 1.921,-0.96 z"
           clip-rule="evenodd" />
        <path
           style="fill:#212721;fill-rule:evenodd"
           inkscape:connector-curvature="0"
           id="path260"
           d="m 150.53,62.88 c 0.08,0 0.16,0 0.24,0 -0.027,0.293 -0.072,0.568 -0.48,0.48 -0.001,-0.241 0.194,-0.286 0.24,-0.48 z"
           clip-rule="evenodd" />
        <path
           style="fill:#212721;fill-rule:evenodd"
           inkscape:connector-curvature="0"
           id="path262"
           d="m 105.65,63.36 c -0.29,0.024 -0.148,-0.349 0,0 l 0,0 z"
           clip-rule="evenodd" />
        <path
           style="fill:#212721;fill-rule:evenodd"
           inkscape:connector-curvature="0"
           id="path264"
           d="m 138.77,66.24 c -0.101,-0.101 0.157,0.157 0,0 l 0,0 z"
           clip-rule="evenodd" />
        <path
           style="fill:#212721;fill-rule:evenodd"
           inkscape:connector-curvature="0"
           id="path266"
           d="m 119.09,68.16 c 0.146,0.014 0.284,0.036 0.24,0.24 -0.146,-0.014 -0.285,-0.036 -0.24,-0.24 z"
           clip-rule="evenodd" />
        <path
           style="fill:#212721;fill-rule:evenodd"
           inkscape:connector-curvature="0"
           id="path268"
           d="m 119.33,68.4 c 0.133,-0.001 0.272,0.194 0,0.24 0,-0.08 0,-0.16 0,-0.24 z"
           clip-rule="evenodd" />
        <path
           style="fill:#212721;fill-rule:evenodd"
           inkscape:connector-curvature="0"
           id="path270"
           d="m 208.37,74.88 c -0.849,-0.404 0.783,-0.75 0,0 l 0,0 z"
           clip-rule="evenodd" />
        <path
           style="fill:#212721;fill-rule:evenodd"
           inkscape:connector-curvature="0"
           id="path272"
           d="m 208.37,74.88 c 1.044,0.907 0.782,1.88 0.96,3.36 -0.663,-0.777 -0.749,-2.131 -0.96,-3.36 z"
           clip-rule="evenodd" />
        <path
           style="fill:#212721;fill-rule:evenodd"
           inkscape:connector-curvature="0"
           id="path274"
           d="m 201.169,82.8 c 1.516,-0.566 0.478,0.36 0.48,0.72 0.002,0.258 0.684,1.213 0.72,1.44 0.206,1.274 0.317,2.769 0.24,3.6 -0.755,-1.644 -1.275,-3.525 -1.44,-5.76 z"
           clip-rule="evenodd" />
        <path
           style="fill:#212721;fill-rule:evenodd"
           inkscape:connector-curvature="0"
           id="path276"
           d="m 202.85,89.28 c 0.328,0.334 0.518,1.185 0.239,1.44 -0.475,-0.454 -0.408,-0.842 -0.239,-1.44 z"
           clip-rule="evenodd" />
        <path
           style="fill:#212721;fill-rule:evenodd"
           inkscape:connector-curvature="0"
           id="path278"
           d="m 203.089,91.2 c -0.1,-0.101 0.158,0.157 0,0 l 0,0 z"
           clip-rule="evenodd" />
        <path
           style="fill:#212721;fill-rule:evenodd"
           inkscape:connector-curvature="0"
           id="path280"
           d="m 203.33,91.68 c 0.137,-0.963 -0.204,1.42 0,0 l 0,0 z"
           clip-rule="evenodd" />
        <path
           style="fill:#212721;fill-rule:evenodd"
           inkscape:connector-curvature="0"
           id="path282"
           d="m 204.29,96.72 c -0.48,-0.815 -0.78,-1.739 -0.72,-3.6 0.262,-1.053 0.2,0.538 0.24,0.72 0.195,0.903 0.646,2.158 0.48,2.88 z"
           clip-rule="evenodd" />
        <path
           style="fill:#212721;fill-rule:evenodd"
           inkscape:connector-curvature="0"
           id="path284"
           d="m 204.049,97.68 c -0.1,-0.101 0.158,0.157 0,0 l 0,0 z"
           clip-rule="evenodd" />
        <path
           style="fill:#212721;fill-rule:evenodd"
           inkscape:connector-curvature="0"
           id="path286"
           d="m 120.29,102.72 c 0.137,-0.963 -0.203,1.42 0,0 l 0,0 z"
           clip-rule="evenodd" />
        <path
           style="fill:#212721;fill-rule:evenodd"
           inkscape:connector-curvature="0"
           id="path288"
           d="m 68.93,103.68 c 0.024,0.29 -0.349,0.148 0,0 l 0,0 z"
           clip-rule="evenodd" />
        <path
           style="fill:#212721;fill-rule:evenodd"
           inkscape:connector-curvature="0"
           id="path290"
           d="m 35.33,110.88 c -0.29,0.024 -0.148,-0.349 0,0 l 0,0 z"
           clip-rule="evenodd" />
        <path
           style="fill:#212721;fill-rule:evenodd"
           inkscape:connector-curvature="0"
           id="path292"
           d="m 169.49,123.84 c -0.24,0.923 -0.969,0.446 -1.44,0.72 0.179,1.419 -0.787,1.589 0,2.4 -0.907,0.206 -0.849,-1.075 -0.479,-1.44 -0.739,-0.179 -0.461,0.659 -1.2,0.48 -0.588,-0.708 0.806,-0.972 0.96,-1.68 -0.137,-3.175 -0.519,-7.485 0,-12.24 0.986,0.327 -0.033,2.233 0.72,3.36 -0.468,0.707 -1.112,2.193 0,2.64 -0.364,0.812 0.179,1.042 -0.479,1.44 0.814,1.677 -0.025,2.483 0.24,4.56 0.83,0.192 0.92,-0.358 1.678,-0.24 z"
           clip-rule="evenodd" />
        <path
           style="fill:#212721;fill-rule:evenodd"
           inkscape:connector-curvature="0"
           id="path294"
           d="m 175.73,113.04 c 0.277,-0.949 0.277,0.948 0,0 l 0,0 z"
           clip-rule="evenodd" />
        <path
           style="fill:#212721;fill-rule:evenodd"
           inkscape:connector-curvature="0"
           id="path296"
           d="m 176.209,113.52 c 0.279,-0.948 0.279,0.948 0,0 l 0,0 z"
           clip-rule="evenodd" />
        <path
           style="fill:#212721;fill-rule:evenodd"
           inkscape:connector-curvature="0"
           id="path298"
           d="m 175.73,113.76 c 0.554,-0.073 0.267,0.693 0.72,0.72 -0.411,1.028 -0.053,2.827 -0.96,3.36 -0.007,-1.447 -0.075,-2.955 0.24,-4.08 z"
           clip-rule="evenodd" />
        <path
           style="fill:#212721;fill-rule:evenodd"
           inkscape:connector-curvature="0"
           id="path300"
           d="m 175.49,118.08 c 0.969,0.223 0.425,2.728 -0.24,2.88 0.327,-0.978 -0.175,-1.873 0.24,-2.88 z"
           clip-rule="evenodd" />
        <path
           style="fill:#212721;fill-rule:evenodd"
           inkscape:connector-curvature="0"
           id="path302"
           d="m 175.49,121.44 c 0.092,-0.457 0.306,0.153 0.24,0.48 -0.092,0.456 -0.306,-0.153 -0.24,-0.48 z"
           clip-rule="evenodd" />
        <path
           style="fill:#212721;fill-rule:evenodd"
           inkscape:connector-curvature="0"
           id="path304"
           d="m 169.49,123.84 c 0.642,-0.638 1.056,-1.504 2.16,-1.68 -0.521,0.76 -1.168,1.392 -2.16,1.68 z"
           clip-rule="evenodd" />
        <path
           style="fill:#212721;fill-rule:evenodd"
           inkscape:connector-curvature="0"
           id="path306"
           d="m 174.53,123.36 c 0.561,1.208 0.502,4.234 -0.96,4.8 0.2,-1.721 0.828,-3.012 0.96,-4.8 z"
           clip-rule="evenodd" />
        <path
           style="fill:#212721;fill-rule:evenodd"
           inkscape:connector-curvature="0"
           id="path308"
           d="m 213.41,124.08 c -0.027,0.293 -0.071,0.568 -0.479,0.48 0.05,-0.269 0.265,-0.374 0.479,-0.48 z"
           clip-rule="evenodd" />
        <path
           style="fill:#212721;fill-rule:evenodd"
           inkscape:connector-curvature="0"
           id="path310"
           d="m 229.97,126 c -0.1,-0.101 0.156,0.157 0,0 l 0,0 z"
           clip-rule="evenodd" />
        <path
           style="fill:#212721;fill-rule:evenodd"
           inkscape:connector-curvature="0"
           id="path312"
           d="m 166.129,126.72 c -2.25,0.23 -3.161,1.798 -4.8,2.64 0.039,-0.279 -0.053,-0.427 -0.24,-0.48 1.361,-0.959 2.802,-1.839 4.08,-2.88 0.628,-0.068 1.033,0.087 0.96,0.72 z"
           clip-rule="evenodd" />
        <path
           style="fill:#212721;fill-rule:evenodd"
           inkscape:connector-curvature="0"
           id="path314"
           d="m 167.33,127.2 c 0.193,0.127 0.39,0.25 0.72,0.24 -0.099,3.237 0.04,5.313 0.48,9.6 -1.243,-0.742 -1.013,-3.402 -1.2,-6 -0.061,-0.844 -0.28,-1.955 -0.24,-2.4 0.043,-0.484 0.809,-0.609 0.24,-1.44 z"
           clip-rule="evenodd" />
        <path
           style="fill:#212721;fill-rule:evenodd"
           inkscape:connector-curvature="0"
           id="path316"
           d="m 217.49,127.92 c 0.024,0.29 -0.349,0.147 0,0 l 0,0 z"
           clip-rule="evenodd" />
        <path
           style="fill:#212721;fill-rule:evenodd"
           inkscape:connector-curvature="0"
           id="path318"
           d="m 173.57,128.4 c 0.844,0.632 -0.536,2.688 -0.72,3.84 -0.773,-1.515 0.878,-2.782 0.72,-3.84 z"
           clip-rule="evenodd" />
        <path
           style="fill:#212721;fill-rule:evenodd"
           inkscape:connector-curvature="0"
           id="path320"
           d="m 172.61,132.72 c -0.101,-0.101 0.157,0.157 0,0 l 0,0 z"
           clip-rule="evenodd" />
        <path
           style="fill:#212721;fill-rule:evenodd"
           inkscape:connector-curvature="0"
           id="path322"
           d="m 166.85,134.88 c -0.083,1.011 -2.118,0.335 -2.641,0.24 0.363,-1.038 1.505,0.11 2.641,-0.24 z"
           clip-rule="evenodd" />
        <path
           style="fill:#212721;fill-rule:evenodd"
           inkscape:connector-curvature="0"
           id="path324"
           d="m 157.01,136.8 c -1.084,-0.356 -2.56,-0.321 -3.36,-0.96 0.72,-0.769 2.786,0.112 3.36,0.96 z"
           clip-rule="evenodd" />
        <path
           style="fill:#212721;fill-rule:evenodd"
           inkscape:connector-curvature="0"
           id="path326"
           d="m 157.01,136.8 c 0.146,0.014 0.283,0.036 0.24,0.24 -0.146,-0.014 -0.285,-0.036 -0.24,-0.24 z"
           clip-rule="evenodd" />
        <path
           style="fill:#212721;fill-rule:evenodd"
           inkscape:connector-curvature="0"
           id="path328"
           d="m 157.49,137.28 c 0.007,-0.233 0.294,-0.186 0.479,-0.24 -0.006,0.233 -0.293,0.186 -0.479,0.24 z"
           clip-rule="evenodd" />
        <path
           style="fill:#212721;fill-rule:evenodd"
           inkscape:connector-curvature="0"
           id="path330"
           d="m 143.81,141.6 c 0.279,0.102 0.269,-0.557 0.48,-0.48 0.765,0.279 1.633,1.139 2.88,1.44 1.592,0.384 3.386,0.087 4.8,0.72 -2.737,0.798 -6.321,-0.353 -8.16,-1.68 z"
           clip-rule="evenodd" />
        <path
           style="fill:#212721;fill-rule:evenodd"
           inkscape:connector-curvature="0"
           id="path332"
           d="m 158.93,142.56 c 0.407,-0.473 1.115,-0.644 1.92,-0.72 -0.253,0.627 -0.975,0.785 -1.92,0.72 z"
           clip-rule="evenodd" />
        <path
           style="fill:#212721;fill-rule:evenodd"
           inkscape:connector-curvature="0"
           id="path334"
           d="m 158.209,142.56 c -0.227,0.905 -1.494,0.59 -2.16,0.72 -1.144,0.223 -2.571,0.576 -3.84,0.48 1.101,-1.3 4.287,-0.514 6,-1.2 z"
           clip-rule="evenodd" />
        <path
           style="fill:#212721;fill-rule:evenodd"
           inkscape:connector-curvature="0"
           id="path336"
           d="m 158.93,142.56 c 0.025,0.29 -0.349,0.148 0,0 l 0,0 z"
           clip-rule="evenodd" />
        <path
           style="fill:#212721;fill-rule:evenodd"
           inkscape:connector-curvature="0"
           id="path338"
           d="m 163.49,163.68 c -0.29,0.025 -0.148,-0.349 0,0 l 0,0 z"
           clip-rule="evenodd" />
        <path
           style="fill:#212721;fill-rule:evenodd"
           inkscape:connector-curvature="0"
           id="path340"
           d="m 148.13,180.24 c -0.058,0.422 -0.413,0.547 -0.96,0.48 0.058,-0.423 0.413,-0.548 0.96,-0.48 z"
           clip-rule="evenodd" />
        <path
           style="fill:#212721;fill-rule:evenodd"
           inkscape:connector-curvature="0"
           id="path342"
           d="m 151.25,181.2 c 0.805,-0.58 -0.58,0.805 0,0 l 0,0 z"
           clip-rule="evenodd" />
        <path
           style="fill:#212721;fill-rule:evenodd"
           inkscape:connector-curvature="0"
           id="path344"
           d="m 104.21,189.12 c 0.727,0.294 -0.17,0.916 -0.24,1.2 -0.793,-0.361 0.498,-0.587 0.24,-1.2 z"
           clip-rule="evenodd" />
        <path
           style="fill:#212721;fill-rule:evenodd"
           inkscape:connector-curvature="0"
           id="path346"
           d="m 90.53,211.68 c -0.101,-0.1 0.157,0.157 0,0 l 0,0 z"
           clip-rule="evenodd" />
        <path
           style="fill:#212721;fill-rule:evenodd"
           inkscape:connector-curvature="0"
           id="path348"
           d="m 24.29,219.36 c 0.29,-0.025 0.148,0.348 0,0 l 0,0 z"
           clip-rule="evenodd" />
        <path
           style="fill:#212721;fill-rule:evenodd"
           inkscape:connector-curvature="0"
           id="path364"
           d="m 68.21,257.28 c 0.024,0.29 -0.349,0.147 0,0 l 0,0 z"
           clip-rule="evenodd" />
      </g>
    </g>
  </g>
</svg>
